<?xml version="1.0" encoding="UTF-8" standalone="no"?>
<!DOCTYPE svg PUBLIC "-//W3C//DTD SVG 1.1//EN" "http://www.w3.org/Graphics/SVG/1.1/DTD/svg11.dtd">
<svg width="100%" height="100%" viewBox="0 0 14044 4725" version="1.1" xmlns="http://www.w3.org/2000/svg" xmlns:xlink="http://www.w3.org/1999/xlink" xml:space="preserve" xmlns:serif="http://www.serif.com/" style="fill-rule:evenodd;clip-rule:evenodd;stroke-linecap:round;stroke-linejoin:round;stroke-miterlimit:1.5;">
    <g transform="matrix(3.69448,0,0,0.407424,-24776,3668.11)">
        <path d="M10372.6,2746.08C10141.7,2382.28 9413.93,2132.07 8586.82,2132.07C7759.71,2132.07 7031.99,2382.28 6800.99,2746.08L10372.6,2746.08Z" style="fill:rgb(235,235,235);"/>
    </g>
    <g transform="matrix(3.32259,-8.32667e-17,0.0755883,3.44353,381.818,2406.29)">
        <path d="M236.291,596.012C198.051,591.723 168.284,559.244 168.284,519.867C168.284,492.969 182.388,468.04 205.445,454.187L215.22,470.455C197.874,480.877 187.264,499.631 187.264,519.867C187.264,551.682 213.094,577.513 244.909,577.513C276.725,577.513 302.555,551.682 302.555,519.867C302.555,499.272 291.568,480.242 273.732,469.945L283.222,453.508C306.93,467.196 321.534,492.492 321.534,519.867C321.534,559.244 291.768,591.723 253.528,596.012L253.528,661.305L236.291,661.305L236.291,596.012Z" style="fill:rgb(0,157,99);"/>
    </g>
    <g transform="matrix(3.32259,-8.32667e-17,0.0755883,3.44353,1327.8,2406.29)">
        <path d="M236.291,596.012C198.051,591.723 168.284,559.244 168.284,519.867C168.284,492.969 182.388,468.04 205.445,454.187L215.22,470.455C197.874,480.877 187.264,499.631 187.264,519.867C187.264,551.682 213.094,577.513 244.909,577.513C276.725,577.513 302.555,551.682 302.555,519.867C302.555,499.272 291.568,480.242 273.732,469.945L283.222,453.508C306.93,467.196 321.534,492.492 321.534,519.867C321.534,559.244 291.768,591.723 253.528,596.012L253.528,661.305L236.291,661.305L236.291,596.012Z" style="fill:rgb(0,157,99);"/>
    </g>
    <g transform="matrix(3.32259,-8.32667e-17,0.0755883,3.44353,2217.47,2395.02)">
        <path d="M236.291,596.012C198.051,591.723 168.284,559.244 168.284,519.867C168.284,492.969 182.388,468.04 205.445,454.187L215.22,470.455C197.874,480.877 187.264,499.631 187.264,519.867C187.264,551.682 213.094,577.513 244.909,577.513C276.725,577.513 302.555,551.682 302.555,519.867C302.555,499.272 291.568,480.242 273.732,469.945L283.222,453.508C306.93,467.196 321.534,492.492 321.534,519.867C321.534,559.244 291.768,591.723 253.528,596.012L253.528,661.305L236.291,661.305L236.291,596.012Z" style="fill:rgb(0,157,99);"/>
    </g>
    <g transform="matrix(3.32259,-8.32667e-17,0.0755883,3.44353,3084.62,2406.29)">
        <path d="M236.291,596.012C198.051,591.723 168.284,559.244 168.284,519.867C168.284,492.969 182.388,468.04 205.445,454.187L215.22,470.455C197.874,480.877 187.264,499.631 187.264,519.867C187.264,551.682 213.094,577.513 244.909,577.513C276.725,577.513 302.555,551.682 302.555,519.867C302.555,499.272 291.568,480.242 273.732,469.945L283.222,453.508C306.93,467.196 321.534,492.492 321.534,519.867C321.534,559.244 291.768,591.723 253.528,596.012L253.528,661.305L236.291,661.305L236.291,596.012Z" style="fill:rgb(0,157,99);"/>
    </g>
    <g transform="matrix(3.32259,-8.32667e-17,0.0755883,3.44353,3974.29,2406.29)">
        <path d="M236.291,596.012C198.051,591.723 168.284,559.244 168.284,519.867C168.284,492.969 182.388,468.04 205.445,454.187L215.22,470.455C197.874,480.877 187.264,499.631 187.264,519.867C187.264,551.682 213.094,577.513 244.909,577.513C276.725,577.513 302.555,551.682 302.555,519.867C302.555,499.272 291.568,480.242 273.732,469.945L283.222,453.508C306.93,467.196 321.534,492.492 321.534,519.867C321.534,559.244 291.768,591.723 253.528,596.012L253.528,661.305L236.291,661.305L236.291,596.012Z" style="fill:rgb(0,157,99);"/>
    </g>
    <g transform="matrix(-0.980618,-0.400682,0.359831,-0.973573,1191.12,3379.83)">
        <circle cx="268.444" cy="560.898" r="114.602" style="fill:url(#_Radial1);stroke:rgb(255,204,0);stroke-width:26.79px;"/>
    </g>
    <g transform="matrix(-0.980618,-0.400682,0.359831,-0.973573,1296.86,4855.8)">
        <circle cx="268.444" cy="560.898" r="114.602" style="fill:url(#_Radial2);stroke:rgb(255,204,0);stroke-width:26.79px;"/>
    </g>
    <g transform="matrix(-0.980618,-0.400682,0.359831,-0.973573,3375.88,2523.95)">
        <circle cx="268.444" cy="560.898" r="114.602" style="fill:url(#_Radial3);stroke:rgb(255,204,0);stroke-width:26.79px;"/>
    </g>
    <g transform="matrix(-0.980618,-0.400682,0.359831,-0.973573,5143.96,3560.02)">
        <circle cx="268.444" cy="560.898" r="114.602" style="fill:url(#_Radial4);stroke:rgb(255,204,0);stroke-width:26.79px;"/>
    </g>
    <g transform="matrix(-0.980618,-0.400682,0.359831,-0.973573,5380.46,2591.52)">
        <circle cx="268.444" cy="560.898" r="114.602" style="fill:url(#_Radial5);stroke:rgb(255,204,0);stroke-width:26.79px;"/>
    </g>
    <g transform="matrix(-0.980618,-0.400682,0.359831,-0.973573,4378.17,1829.24)">
        <circle cx="268.444" cy="560.898" r="114.602" style="fill:url(#_Radial6);stroke:rgb(255,204,0);stroke-width:26.79px;"/>
    </g>
    <g transform="matrix(-0.980618,-0.400682,0.359831,-0.973573,1202.38,2020.69)">
        <circle cx="268.444" cy="560.898" r="114.602" style="fill:url(#_Radial7);stroke:rgb(255,204,0);stroke-width:26.79px;"/>
    </g>
    <g transform="matrix(-0.980618,-0.400682,0.359831,-0.973573,3116.86,3458.67)">
        <circle cx="268.444" cy="560.898" r="114.602" style="fill:url(#_Radial8);stroke:rgb(255,204,0);stroke-width:26.79px;"/>
    </g>
    <g transform="matrix(-0.980618,-0.400682,0.359831,-0.973573,3139.39,4843.85)">
        <circle cx="268.444" cy="560.898" r="114.602" style="fill:url(#_Radial9);stroke:rgb(255,204,0);stroke-width:26.79px;"/>
    </g>
    <g transform="matrix(3.32259,-8.32667e-17,0.0755883,3.44353,8457.7,2374.75)">
        <path d="M236.291,596.012C198.051,591.723 168.284,559.244 168.284,519.867C168.284,492.969 182.388,468.04 205.445,454.187L215.22,470.455C197.874,480.877 187.264,499.631 187.264,519.867C187.264,551.682 213.094,577.513 244.909,577.513C276.725,577.513 302.555,551.682 302.555,519.867C302.555,499.272 291.568,480.242 273.732,469.945L283.222,453.508C306.93,467.196 321.534,492.492 321.534,519.867C321.534,559.244 291.768,591.723 253.528,596.012L253.528,661.305L236.291,661.305L236.291,596.012Z" style="fill:rgb(0,157,99);"/>
    </g>
    <g transform="matrix(3.32259,-8.32667e-17,0.0755883,3.44353,9403.68,2374.75)">
        <path d="M236.291,596.012C198.051,591.723 168.284,559.244 168.284,519.867C168.284,492.969 182.388,468.04 205.445,454.187L215.22,470.455C197.874,480.877 187.264,499.631 187.264,519.867C187.264,551.682 213.094,577.513 244.909,577.513C276.725,577.513 302.555,551.682 302.555,519.867C302.555,499.272 291.568,480.242 273.732,469.945L283.222,453.508C306.93,467.196 321.534,492.492 321.534,519.867C321.534,559.244 291.768,591.723 253.528,596.012L253.528,661.305L236.291,661.305L236.291,596.012Z" style="fill:rgb(0,157,99);"/>
    </g>
    <g transform="matrix(3.32259,-8.32667e-17,0.0755883,3.44353,7568.03,2374.75)">
        <path d="M236.291,596.012C198.051,591.723 168.284,559.244 168.284,519.867C168.284,492.969 182.388,468.04 205.445,454.187L215.22,470.455C197.874,480.877 187.264,499.631 187.264,519.867C187.264,551.682 213.094,577.513 244.909,577.513C276.725,577.513 302.555,551.682 302.555,519.867C302.555,499.272 291.568,480.242 273.732,469.945L283.222,453.508C306.93,467.196 321.534,492.492 321.534,519.867C321.534,559.244 291.768,591.723 253.528,596.012L253.528,661.305L236.291,661.305L236.291,596.012Z" style="fill:rgb(0,157,99);"/>
    </g>
    <g transform="matrix(3.32259,-8.32667e-17,0.0755883,3.44353,10240.6,2363.49)">
        <path d="M236.291,596.012C198.051,591.723 168.284,559.244 168.284,519.867C168.284,492.969 182.388,468.04 205.445,454.187L215.22,470.455C197.874,480.877 187.264,499.631 187.264,519.867C187.264,551.682 213.094,577.513 244.909,577.513C276.725,577.513 302.555,551.682 302.555,519.867C302.555,499.272 291.568,480.242 273.732,469.945L283.222,453.508C306.93,467.196 321.534,492.492 321.534,519.867C321.534,559.244 291.768,591.723 253.528,596.012L253.528,661.305L236.291,661.305L236.291,596.012Z" style="fill:rgb(0,157,99);"/>
    </g>
    <g transform="matrix(3.32259,-8.32667e-17,0.0755883,3.44353,11019.7,2374.75)">
        <path d="M236.291,596.012C198.051,591.723 168.284,559.244 168.284,519.867C168.284,492.969 182.388,468.04 205.445,454.187L215.22,470.455C197.874,480.877 187.264,499.631 187.264,519.867C187.264,551.682 213.094,577.513 244.909,577.513C276.725,577.513 302.555,551.682 302.555,519.867C302.555,499.272 291.568,480.242 273.732,469.945L283.222,453.508C306.93,467.196 321.534,492.492 321.534,519.867C321.534,559.244 291.768,591.723 253.528,596.012L253.528,661.305L236.291,661.305L236.291,596.012Z" style="fill:rgb(0,157,99);"/>
    </g>
    <g transform="matrix(3.32259,-8.32667e-17,0.0755883,3.44353,11630.1,2383.76)">
        <path d="M236.291,596.012C198.051,591.723 168.284,559.244 168.284,519.867C168.284,492.969 182.388,468.04 205.445,454.187L215.22,470.455C197.874,480.877 187.264,499.631 187.264,519.867C187.264,551.682 213.094,577.513 244.909,577.513C276.725,577.513 302.555,551.682 302.555,519.867C302.555,499.272 291.568,480.242 273.732,469.945L283.222,453.508C306.93,467.196 321.534,492.492 321.534,519.867C321.534,559.244 291.768,591.723 253.528,596.012L253.528,661.305L236.291,661.305L236.291,596.012Z" style="fill:rgb(0,157,99);"/>
    </g>
    <g transform="matrix(-0.980618,-0.400682,0.359831,-0.973573,9372.74,4824.26)">
        <circle cx="268.444" cy="560.898" r="114.602" style="fill:url(#_Radial10);stroke:rgb(255,204,0);stroke-width:26.79px;"/>
    </g>
    <g transform="matrix(-0.980618,-0.400682,0.359831,-0.973573,1956.91,2670.35)">
        <circle cx="268.444" cy="560.898" r="114.602" style="fill:url(#_Radial11);stroke:rgb(255,204,0);stroke-width:26.79px;"/>
    </g>
    <g transform="matrix(1.21812e-17,-0.518977,0.976919,-0.00599907,-62.6253,8250)">
        <path d="M8711.21,3279.03L8711.21,3407.22L8339.98,3210.01L8711.21,3012.8L8711.21,3140.99L9595.73,3140.99L9595.73,3012.8L9966.96,3210.01L9595.73,3407.22L9595.73,3279.03L8711.21,3279.03Z" style="fill:rgb(16,255,0);"/>
    </g>
    <g transform="matrix(1.71034,0,0,2.03468,-11198.3,-3107.44)">
        <text x="7943.75px" y="3272.49px" style="font-family:'ArialMT', 'Arial', sans-serif;font-size:225.537px;fill:rgb(30,162,29);">K</text>
    </g>
    <g transform="matrix(1.71034,0,0,2.03468,-18561.4,-2217.58)">
        <text x="12398.1px" y="2890.37px" style="font-family:'ArialMT', 'Arial', sans-serif;font-size:124.045px;fill:rgb(30,162,29);">D</text>
    </g>
    <g transform="matrix(1.21812e-17,-0.518977,0.976919,-0.00599907,6165.22,7765.75)">
        <path d="M8711.21,3279.03L8711.21,3407.22L8339.98,3210.01L8711.21,3012.8L8711.21,3140.99L9595.73,3140.99L9595.73,3012.8L9966.96,3210.01L9595.73,3407.22L9595.73,3279.03L8711.21,3279.03Z" style="fill:rgb(16,255,0);"/>
    </g>
    <g transform="matrix(0.801387,-1.82146e-17,0.00599907,0.976919,3467.12,449.065)">
        <path d="M8580.39,3279.03L8580.39,3407.22L8339.98,3210.01L8580.39,3012.8L8580.39,3140.99L9726.56,3140.99L9726.56,3012.8L9966.96,3210.01L9726.56,3407.22L9726.56,3279.03L8580.39,3279.03Z" style="fill:rgb(16,255,0);"/>
    </g>
    <g transform="matrix(1.71034,0,0,2.03468,-4925.45,-3609.71)">
        <text x="7943.75px" y="3272.49px" style="font-family:'ArialMT', 'Arial', sans-serif;font-size:225.537px;fill:rgb(30,162,29);">K</text>
    </g>
    <g transform="matrix(1.71034,0,0,2.03468,-12288.5,-2719.85)">
        <text x="12398.1px" y="2890.37px" style="font-family:'ArialMT', 'Arial', sans-serif;font-size:124.045px;fill:rgb(30,162,29);">D</text>
    </g>
    <g transform="matrix(1.71034,0,0,2.03468,-3393.86,-3528.63)">
        <text x="7943.75px" y="3272.49px" style="font-family:'ArialMT', 'Arial', sans-serif;font-size:225.537px;fill:rgb(30,162,29);">K</text>
    </g>
    <g transform="matrix(1.71034,0,0,2.03468,-10756.9,-2638.77)">
        <text x="12398.1px" y="2890.37px" style="font-family:'ArialMT', 'Arial', sans-serif;font-size:124.045px;fill:rgb(30,162,29);">D</text>
    </g>
    <g transform="matrix(1.71034,0,0,2.03468,-2754.2,-3510.61)">
        <text x="7943.75px" y="3272.49px" style="font-family:'ArialMT', 'Arial', sans-serif;font-size:225.537px;fill:rgb(133,29,162);">K</text>
    </g>
    <g transform="matrix(1.71034,0,0,2.03468,-10117.3,-2620.75)">
        <text x="12398.1px" y="2890.37px" style="font-family:'ArialMT', 'Arial', sans-serif;font-size:124.045px;fill:rgb(133,29,162);">X</text>
    </g>
    <g transform="matrix(1.71034,0,0,2.03468,-10549.7,-2800.94)">
        <text x="12398.1px" y="2890.37px" style="font-family:'ArialMT', 'Arial', sans-serif;font-size:124.045px;fill:rgb(10,0,12);">x</text>
    </g>
    <g transform="matrix(-0.338742,-0.819556,0.889998,-0.336099,11689.5,2810.56)">
        <circle cx="268.444" cy="560.898" r="114.602" style="fill:url(#_Radial12);stroke:rgb(255,204,0);stroke-width:26.79px;"/>
    </g>
    <g transform="matrix(-0.338742,-0.819556,0.889998,-0.336099,11289.2,2405.67)">
        <circle cx="268.444" cy="560.898" r="114.602" style="fill:url(#_Radial13);stroke:rgb(255,204,0);stroke-width:26.79px;"/>
    </g>
    <g transform="matrix(0.685107,0.713148,-0.840166,0.749695,15103.8,-2354.03)">
        <path d="M1250.06,4237.22C1250.06,4229.03 1242.49,4222.38 1233.17,4222.38L1199.39,4222.38C1190.06,4222.38 1182.49,4229.03 1182.49,4237.22L1182.49,4534.12C1182.49,4542.31 1190.06,4548.96 1199.39,4548.96L1233.17,4548.96C1242.49,4548.96 1250.06,4542.31 1250.06,4534.12L1250.06,4237.22Z" style="fill:rgb(167,163,184);stroke:black;stroke-opacity:0;stroke-width:17.22px;"/>
    </g>
    <g transform="matrix(0.685107,0.713148,-0.840166,0.749695,15159.8,-2295.77)">
        <path d="M1250.06,4237.22C1250.06,4229.03 1242.49,4222.38 1233.17,4222.38L1199.39,4222.38C1190.06,4222.38 1182.49,4229.03 1182.49,4237.22L1182.49,4534.12C1182.49,4542.31 1190.06,4548.96 1199.39,4548.96L1233.17,4548.96C1242.49,4548.96 1250.06,4542.31 1250.06,4534.12L1250.06,4237.22Z" style="fill:rgb(167,163,184);stroke:black;stroke-opacity:0;stroke-width:17.22px;"/>
    </g>
    <g transform="matrix(1.30115,0.250802,-0.113943,0.774094,11060.6,-1556.48)">
        <path d="M1250.06,4251.01C1250.06,4235.21 1242.49,4222.38 1233.17,4222.38L1199.39,4222.38C1190.06,4222.38 1182.49,4235.21 1182.49,4251.01L1182.49,4520.33C1182.49,4536.13 1190.06,4548.96 1199.39,4548.96L1233.17,4548.96C1242.49,4548.96 1250.06,4536.13 1250.06,4520.33L1250.06,4251.01Z" style="fill:rgb(167,163,184);stroke:black;stroke-opacity:0;stroke-width:16.16px;"/>
    </g>
    <g transform="matrix(0.159442,1.26957,-0.809581,0.0499841,15308.1,181.56)">
        <path d="M1250.06,4249.08C1250.06,4234.34 1242.49,4222.38 1233.17,4222.38L1199.39,4222.38C1190.06,4222.38 1182.49,4234.34 1182.49,4249.08L1182.49,4522.26C1182.49,4537 1190.06,4548.96 1199.39,4548.96L1233.17,4548.96C1242.49,4548.96 1250.06,4537 1250.06,4522.26L1250.06,4249.08Z" style="fill:rgb(167,163,184);stroke:black;stroke-opacity:0;stroke-width:17.22px;"/>
    </g>
    <g transform="matrix(-0.977954,-0.412575,0.444273,-0.968517,12495.3,4812.14)">
        <circle cx="268.444" cy="560.898" r="114.602" style="fill:url(#_Radial14);stroke:rgb(255,204,0);stroke-width:26.79px;"/>
    </g>
    <g transform="matrix(-1.02019,-0.430391,0.458897,-1.0004,11877.1,4838.39)">
        <circle cx="268.444" cy="560.898" r="114.602" style="fill:url(#_Radial15);stroke:rgb(255,204,0);stroke-width:26.79px;"/>
    </g>
    <g transform="matrix(1.31406,-0.0189752,-0.0384485,1.41886,10692.2,-2768.17)">
        <path d="M1250.06,4238.03C1250.06,4229.39 1242.49,4222.38 1233.17,4222.38L1199.39,4222.38C1190.06,4222.38 1182.49,4229.39 1182.49,4238.03L1182.49,4533.31C1182.49,4541.95 1190.06,4548.96 1199.39,4548.96L1233.17,4548.96C1242.49,4548.96 1250.06,4541.95 1250.06,4533.31L1250.06,4238.03Z" style="fill:rgb(167,163,184);stroke:black;stroke-opacity:0;stroke-width:13.38px;"/>
    </g>
    <g transform="matrix(1.31406,-0.0189752,-0.0384485,1.41886,10799.6,-2769.72)">
        <path d="M1250.06,4238.03C1250.06,4229.39 1242.49,4222.38 1233.17,4222.38L1199.39,4222.38C1190.06,4222.38 1182.49,4229.39 1182.49,4238.03L1182.49,4533.31C1182.49,4541.95 1190.06,4548.96 1199.39,4548.96L1233.17,4548.96C1242.49,4548.96 1250.06,4541.95 1250.06,4533.31L1250.06,4238.03Z" style="fill:rgb(167,163,184);stroke:black;stroke-opacity:0;stroke-width:13.38px;"/>
    </g>
    <g transform="matrix(1.42686,-0.984272,0.645998,0.770182,7785.58,1645.26)">
        <path d="M1250.06,4251.63C1250.06,4235.48 1242.49,4222.38 1233.17,4222.38L1199.39,4222.38C1190.06,4222.38 1182.49,4235.48 1182.49,4251.63L1182.49,4519.7C1182.49,4535.85 1190.06,4548.96 1199.39,4548.96L1233.17,4548.96C1242.49,4548.96 1250.06,4535.85 1250.06,4519.7L1250.06,4251.63Z" style="fill:rgb(167,163,184);stroke:black;stroke-opacity:0;stroke-width:12.16px;"/>
    </g>
    <g transform="matrix(1.37461,0.943819,-0.688261,0.789448,13333.7,-777.912)">
        <path d="M1250.06,4249.45C1250.06,4234.51 1242.49,4222.38 1233.17,4222.38L1199.39,4222.38C1190.06,4222.38 1182.49,4234.51 1182.49,4249.45L1182.49,4521.89C1182.49,4536.83 1190.06,4548.96 1199.39,4548.96L1233.17,4548.96C1242.49,4548.96 1250.06,4536.83 1250.06,4521.89L1250.06,4249.45Z" style="fill:rgb(167,163,184);stroke:black;stroke-opacity:0;stroke-width:13.59px;"/>
    </g>
    <g transform="matrix(-0.884233,0.0674635,-0.0430741,-0.95037,10071.9,2691.58)">
        <circle cx="268.444" cy="560.898" r="114.602" style="fill:url(#_Radial16);stroke:rgb(255,204,0);stroke-width:26.79px;"/>
    </g>
    <g transform="matrix(-0.884233,0.0674635,-0.0430741,-0.95037,9562.71,2946.36)">
        <circle cx="268.444" cy="560.898" r="114.602" style="fill:url(#_Radial17);stroke:rgb(255,204,0);stroke-width:26.79px;"/>
    </g>
    <g transform="matrix(0.890656,-0.429748,0.451695,1.03145,6223.07,-2157.83)">
        <path d="M1250.06,4237.22C1250.06,4229.03 1242.49,4222.38 1233.17,4222.38L1199.39,4222.38C1190.06,4222.38 1182.49,4229.03 1182.49,4237.22L1182.49,4534.12C1182.49,4542.31 1190.06,4548.96 1199.39,4548.96L1233.17,4548.96C1242.49,4548.96 1250.06,4542.31 1250.06,4534.12L1250.06,4237.22Z" style="fill:rgb(167,163,184);stroke:black;stroke-opacity:0;stroke-width:17.22px;"/>
    </g>
    <g transform="matrix(0.890656,-0.429748,0.451695,1.03145,6295.83,-2192.94)">
        <path d="M1250.06,4237.22C1250.06,4229.03 1242.49,4222.38 1233.17,4222.38L1199.39,4222.38C1190.06,4222.38 1182.49,4229.03 1182.49,4237.22L1182.49,4534.12C1182.49,4542.31 1190.06,4548.96 1199.39,4548.96L1233.17,4548.96C1242.49,4548.96 1250.06,4542.31 1250.06,4534.12L1250.06,4237.22Z" style="fill:rgb(167,163,184);stroke:black;stroke-opacity:0;stroke-width:17.22px;"/>
    </g>
    <g transform="matrix(0.642496,-1.15892,0.700428,0.348718,5725.5,1933.13)">
        <path d="M1250.06,4251.01C1250.06,4235.21 1242.49,4222.38 1233.17,4222.38L1199.39,4222.38C1190.06,4222.38 1182.49,4235.21 1182.49,4251.01L1182.49,4520.33C1182.49,4536.13 1190.06,4548.96 1199.39,4548.96L1233.17,4548.96C1242.49,4548.96 1250.06,4536.13 1250.06,4520.33L1250.06,4251.01Z" style="fill:rgb(167,163,184);stroke:black;stroke-opacity:0;stroke-width:16.16px;"/>
    </g>
    <g transform="matrix(1.25631,0.24273,-0.203918,0.785071,8696.72,-1564.54)">
        <path d="M1250.06,4249.08C1250.06,4234.34 1242.49,4222.38 1233.17,4222.38L1199.39,4222.38C1190.06,4222.38 1182.49,4234.34 1182.49,4249.08L1182.49,4522.26C1182.49,4537 1190.06,4548.96 1199.39,4548.96L1233.17,4548.96C1242.49,4548.96 1250.06,4537 1250.06,4522.26L1250.06,4249.08Z" style="fill:rgb(167,163,184);stroke:black;stroke-opacity:0;stroke-width:17.22px;"/>
    </g>
    <g transform="matrix(-0.821242,0.334635,-0.331639,-0.89167,10147.8,4135.42)">
        <circle cx="268.444" cy="560.898" r="114.602" style="fill:url(#_Radial18);stroke:rgb(255,204,0);stroke-width:26.79px;"/>
    </g>
    <g transform="matrix(0.716569,-0.681528,0.74548,0.843909,5000.33,695.325)">
        <path d="M1250.06,4237.22C1250.06,4229.03 1242.49,4222.38 1233.17,4222.38L1199.39,4222.38C1190.06,4222.38 1182.49,4229.03 1182.49,4237.22L1182.49,4534.12C1182.49,4542.31 1190.06,4548.96 1199.39,4548.96L1233.17,4548.96C1242.49,4548.96 1250.06,4542.31 1250.06,4534.12L1250.06,4237.22Z" style="fill:rgb(167,163,184);stroke:black;stroke-opacity:0;stroke-width:17.22px;"/>
    </g>
    <g transform="matrix(0.716569,-0.681528,0.74548,0.843909,5058.87,639.649)">
        <path d="M1250.06,4237.22C1250.06,4229.03 1242.49,4222.38 1233.17,4222.38L1199.39,4222.38C1190.06,4222.38 1182.49,4229.03 1182.49,4237.22L1182.49,4534.12C1182.49,4542.31 1190.06,4548.96 1199.39,4548.96L1233.17,4548.96C1242.49,4548.96 1250.06,4542.31 1250.06,4534.12L1250.06,4237.22Z" style="fill:rgb(167,163,184);stroke:black;stroke-opacity:0;stroke-width:17.22px;"/>
    </g>
    <g transform="matrix(0.257313,-1.29988,0.773513,0.117817,5777.63,4742.46)">
        <path d="M1250.06,4251.01C1250.06,4235.21 1242.49,4222.38 1233.17,4222.38L1199.39,4222.38C1190.06,4222.38 1182.49,4235.21 1182.49,4251.01L1182.49,4520.33C1182.49,4536.13 1190.06,4548.96 1199.39,4548.96L1233.17,4548.96C1242.49,4548.96 1250.06,4536.13 1250.06,4520.33L1250.06,4251.01Z" style="fill:rgb(167,163,184);stroke:black;stroke-opacity:0;stroke-width:16.16px;"/>
    </g>
    <g transform="matrix(1.27035,-0.153084,0.0459303,0.809821,7536.91,503.738)">
        <path d="M1250.06,4249.08C1250.06,4234.34 1242.49,4222.38 1233.17,4222.38L1199.39,4222.38C1190.06,4222.38 1182.49,4234.34 1182.49,4249.08L1182.49,4522.26C1182.49,4537 1190.06,4548.96 1199.39,4548.96L1233.17,4548.96C1242.49,4548.96 1250.06,4537 1250.06,4522.26L1250.06,4249.08Z" style="fill:rgb(167,163,184);stroke:black;stroke-opacity:0;stroke-width:17.22px;"/>
    </g>
    <g transform="matrix(-0.886781,-0.00613109,0.0359236,-0.950668,11454.9,1850.63)">
        <circle cx="268.444" cy="560.898" r="114.602" style="fill:url(#_Radial19);stroke:rgb(255,204,0);stroke-width:26.79px;"/>
    </g>
    <g transform="matrix(-0.886781,-0.00613109,0.0359236,-0.950668,10926.3,2062.29)">
        <circle cx="268.444" cy="560.898" r="114.602" style="fill:url(#_Radial20);stroke:rgb(255,204,0);stroke-width:26.79px;"/>
    </g>
    <g transform="matrix(0.92324,-0.354371,0.364561,1.06537,8021.67,-3301.39)">
        <path d="M1250.06,4237.22C1250.06,4229.03 1242.49,4222.38 1233.17,4222.38L1199.39,4222.38C1190.06,4222.38 1182.49,4229.03 1182.49,4237.22L1182.49,4534.12C1182.49,4542.31 1190.06,4548.96 1199.39,4548.96L1233.17,4548.96C1242.49,4548.96 1250.06,4542.31 1250.06,4534.12L1250.06,4237.22Z" style="fill:rgb(167,163,184);stroke:black;stroke-opacity:0;stroke-width:17.22px;"/>
    </g>
    <g transform="matrix(0.92324,-0.354371,0.364561,1.06537,8097.1,-3330.34)">
        <path d="M1250.06,4237.22C1250.06,4229.03 1242.49,4222.38 1233.17,4222.38L1199.39,4222.38C1190.06,4222.38 1182.49,4229.03 1182.49,4237.22L1182.49,4534.12C1182.49,4542.31 1190.06,4548.96 1199.39,4548.96L1233.17,4548.96C1242.49,4548.96 1250.06,4542.31 1250.06,4534.12L1250.06,4237.22Z" style="fill:rgb(167,163,184);stroke:black;stroke-opacity:0;stroke-width:17.22px;"/>
    </g>
    <g transform="matrix(0.736432,-1.10161,0.669081,0.405628,7186.4,734.182)">
        <path d="M1250.06,4251.01C1250.06,4235.21 1242.49,4222.38 1233.17,4222.38L1199.39,4222.38C1190.06,4222.38 1182.49,4235.21 1182.49,4251.01L1182.49,4520.33C1182.49,4536.13 1190.06,4548.96 1199.39,4548.96L1233.17,4548.96C1242.49,4548.96 1250.06,4536.13 1250.06,4520.33L1250.06,4251.01Z" style="fill:rgb(167,163,184);stroke:black;stroke-opacity:0;stroke-width:16.16px;"/>
    </g>
    <g transform="matrix(1.23184,0.346125,-0.26835,0.765446,10437.6,-2504.91)">
        <path d="M1250.06,4249.08C1250.06,4234.34 1242.49,4222.38 1233.17,4222.38L1199.39,4222.38C1190.06,4222.38 1182.49,4234.34 1182.49,4249.08L1182.49,4522.26C1182.49,4537 1190.06,4548.96 1199.39,4548.96L1233.17,4548.96C1242.49,4548.96 1250.06,4537 1250.06,4522.26L1250.06,4249.08Z" style="fill:rgb(167,163,184);stroke:black;stroke-opacity:0;stroke-width:17.22px;"/>
    </g>
    <g transform="matrix(0.431609,-0.774682,0.816385,0.488442,7447.97,1437.32)">
        <circle cx="268.444" cy="560.898" r="114.602" style="fill:url(#_Radial21);stroke:rgb(255,204,0);stroke-width:26.79px;"/>
    </g>
    <g transform="matrix(0.431609,-0.774682,0.816385,0.488442,7516.43,872.068)">
        <circle cx="268.444" cy="560.898" r="114.602" style="fill:url(#_Radial22);stroke:rgb(255,204,0);stroke-width:26.79px;"/>
    </g>
    <g transform="matrix(-0.133005,0.979929,-1.10946,-0.192385,13616,903.005)">
        <path d="M1250.06,4237.22C1250.06,4229.03 1242.49,4222.38 1233.17,4222.38L1199.39,4222.38C1190.06,4222.38 1182.49,4229.03 1182.49,4237.22L1182.49,4534.12C1182.49,4542.31 1190.06,4548.96 1199.39,4548.96L1233.17,4548.96C1242.49,4548.96 1250.06,4542.31 1250.06,4534.12L1250.06,4237.22Z" style="fill:rgb(167,163,184);stroke:black;stroke-opacity:0;stroke-width:17.22px;"/>
    </g>
    <g transform="matrix(-0.133005,0.979929,-1.10946,-0.192385,13605.2,983.059)">
        <path d="M1250.06,4237.22C1250.06,4229.03 1242.49,4222.38 1233.17,4222.38L1199.39,4222.38C1190.06,4222.38 1182.49,4229.03 1182.49,4237.22L1182.49,4534.12C1182.49,4542.31 1190.06,4548.96 1199.39,4548.96L1233.17,4548.96C1242.49,4548.96 1250.06,4542.31 1250.06,4534.12L1250.06,4237.22Z" style="fill:rgb(167,163,184);stroke:black;stroke-opacity:0;stroke-width:17.22px;"/>
    </g>
    <g transform="matrix(0.612051,1.17528,-0.677295,0.391759,10478.7,-1769.16)">
        <path d="M1250.06,4251.01C1250.06,4235.21 1242.49,4222.38 1233.17,4222.38L1199.39,4222.38C1190.06,4222.38 1182.49,4235.21 1182.49,4251.01L1182.49,4520.33C1182.49,4536.13 1190.06,4548.96 1199.39,4548.96L1233.17,4548.96C1242.49,4548.96 1250.06,4536.13 1250.06,4520.33L1250.06,4251.01Z" style="fill:rgb(167,163,184);stroke:black;stroke-opacity:0;stroke-width:16.16px;"/>
    </g>
    <g transform="matrix(-0.895605,0.913846,-0.542246,-0.603232,11756.4,2638.71)">
        <path d="M1250.06,4249.08C1250.06,4234.34 1242.49,4222.38 1233.17,4222.38L1199.39,4222.38C1190.06,4222.38 1182.49,4234.34 1182.49,4249.08L1182.49,4522.26C1182.49,4537 1190.06,4548.96 1199.39,4548.96L1233.17,4548.96C1242.49,4548.96 1250.06,4537 1250.06,4522.26L1250.06,4249.08Z" style="fill:rgb(167,163,184);stroke:black;stroke-opacity:0;stroke-width:17.22px;"/>
    </g>
    <g transform="matrix(0.571958,0.677704,-0.745612,0.590865,7687.17,2011.98)">
        <circle cx="268.444" cy="560.898" r="114.602" style="fill:url(#_Radial23);stroke:rgb(255,204,0);stroke-width:26.79px;"/>
    </g>
    <g transform="matrix(0.571958,0.677704,-0.745612,0.590865,8191.68,2275.92)">
        <circle cx="268.444" cy="560.898" r="114.602" style="fill:url(#_Radial24);stroke:rgb(255,204,0);stroke-width:26.79px;"/>
    </g>
    <g transform="matrix(-0.869551,-0.470992,0.572348,-0.969711,6005.42,7970.33)">
        <path d="M1250.06,4237.22C1250.06,4229.03 1242.49,4222.38 1233.17,4222.38L1199.39,4222.38C1190.06,4222.38 1182.49,4229.03 1182.49,4237.22L1182.49,4534.12C1182.49,4542.31 1190.06,4548.96 1199.39,4548.96L1233.17,4548.96C1242.49,4548.96 1250.06,4542.31 1250.06,4534.12L1250.06,4237.22Z" style="fill:rgb(167,163,184);stroke:black;stroke-opacity:0;stroke-width:17.22px;"/>
    </g>
    <g transform="matrix(-0.869551,-0.470992,0.572348,-0.969711,5934.38,7931.85)">
        <path d="M1250.06,4237.22C1250.06,4229.03 1242.49,4222.38 1233.17,4222.38L1199.39,4222.38C1190.06,4222.38 1182.49,4229.03 1182.49,4237.22L1182.49,4534.12C1182.49,4542.31 1190.06,4548.96 1199.39,4548.96L1233.17,4548.96C1242.49,4548.96 1250.06,4542.31 1250.06,4534.12L1250.06,4237.22Z" style="fill:rgb(167,163,184);stroke:black;stroke-opacity:0;stroke-width:17.22px;"/>
    </g>
    <g transform="matrix(-1.31579,0.156816,-0.126891,-0.772077,9614.5,5980.85)">
        <path d="M1250.06,4251.01C1250.06,4235.21 1242.49,4222.38 1233.17,4222.38L1199.39,4222.38C1190.06,4222.38 1182.49,4235.21 1182.49,4251.01L1182.49,4520.33C1182.49,4536.13 1190.06,4548.96 1199.39,4548.96L1233.17,4548.96C1242.49,4548.96 1250.06,4536.13 1250.06,4520.33L1250.06,4251.01Z" style="fill:rgb(167,163,184);stroke:black;stroke-opacity:0;stroke-width:16.16px;"/>
    </g>
    <g transform="matrix(-0.53802,-1.16093,0.756025,-0.293846,5039.63,5616.99)">
        <path d="M1250.06,4249.08C1250.06,4234.34 1242.49,4222.38 1233.17,4222.38L1199.39,4222.38C1190.06,4222.38 1182.49,4234.34 1182.49,4249.08L1182.49,4522.26C1182.49,4537 1190.06,4548.96 1199.39,4548.96L1233.17,4548.96C1242.49,4548.96 1250.06,4537 1250.06,4522.26L1250.06,4249.08Z" style="fill:rgb(167,163,184);stroke:black;stroke-opacity:0;stroke-width:17.22px;"/>
    </g>
    <g transform="matrix(0.95647,0,0,1.35363,3529.52,-1261.03)">
        <text x="7943.75px" y="3272.49px" style="font-family:'ArialMT', 'Arial', sans-serif;font-size:458.895px;fill:rgb(133,29,162);">*</text>
    </g>
    <defs>
        <radialGradient id="_Radial1" cx="0" cy="0" r="1" gradientUnits="userSpaceOnUse" gradientTransform="matrix(114.602,0,0,114.602,268.444,560.898)"><stop offset="0" style="stop-color:white;stop-opacity:1"/><stop offset="0.48" style="stop-color:rgb(86,223,172);stop-opacity:1"/><stop offset="1" style="stop-color:rgb(34,213,147);stop-opacity:1"/></radialGradient>
        <radialGradient id="_Radial2" cx="0" cy="0" r="1" gradientUnits="userSpaceOnUse" gradientTransform="matrix(114.602,0,0,114.602,268.444,560.898)"><stop offset="0" style="stop-color:white;stop-opacity:1"/><stop offset="0.48" style="stop-color:rgb(86,223,172);stop-opacity:1"/><stop offset="1" style="stop-color:rgb(34,213,147);stop-opacity:1"/></radialGradient>
        <radialGradient id="_Radial3" cx="0" cy="0" r="1" gradientUnits="userSpaceOnUse" gradientTransform="matrix(114.602,0,0,114.602,268.444,560.898)"><stop offset="0" style="stop-color:white;stop-opacity:1"/><stop offset="0.48" style="stop-color:rgb(86,223,172);stop-opacity:1"/><stop offset="1" style="stop-color:rgb(34,213,147);stop-opacity:1"/></radialGradient>
        <radialGradient id="_Radial4" cx="0" cy="0" r="1" gradientUnits="userSpaceOnUse" gradientTransform="matrix(114.602,0,0,114.602,268.444,560.898)"><stop offset="0" style="stop-color:white;stop-opacity:1"/><stop offset="0.48" style="stop-color:rgb(86,223,172);stop-opacity:1"/><stop offset="1" style="stop-color:rgb(34,213,147);stop-opacity:1"/></radialGradient>
        <radialGradient id="_Radial5" cx="0" cy="0" r="1" gradientUnits="userSpaceOnUse" gradientTransform="matrix(114.602,0,0,114.602,268.444,560.898)"><stop offset="0" style="stop-color:white;stop-opacity:1"/><stop offset="0.48" style="stop-color:rgb(86,223,172);stop-opacity:1"/><stop offset="1" style="stop-color:rgb(34,213,147);stop-opacity:1"/></radialGradient>
        <radialGradient id="_Radial6" cx="0" cy="0" r="1" gradientUnits="userSpaceOnUse" gradientTransform="matrix(114.602,0,0,114.602,268.444,560.898)"><stop offset="0" style="stop-color:white;stop-opacity:1"/><stop offset="0.48" style="stop-color:rgb(86,223,172);stop-opacity:1"/><stop offset="1" style="stop-color:rgb(34,213,147);stop-opacity:1"/></radialGradient>
        <radialGradient id="_Radial7" cx="0" cy="0" r="1" gradientUnits="userSpaceOnUse" gradientTransform="matrix(114.602,0,0,114.602,268.444,560.898)"><stop offset="0" style="stop-color:white;stop-opacity:1"/><stop offset="0.48" style="stop-color:rgb(86,223,172);stop-opacity:1"/><stop offset="1" style="stop-color:rgb(34,213,147);stop-opacity:1"/></radialGradient>
        <radialGradient id="_Radial8" cx="0" cy="0" r="1" gradientUnits="userSpaceOnUse" gradientTransform="matrix(114.602,0,0,114.602,268.444,560.898)"><stop offset="0" style="stop-color:white;stop-opacity:1"/><stop offset="0.48" style="stop-color:rgb(86,223,172);stop-opacity:1"/><stop offset="1" style="stop-color:rgb(34,213,147);stop-opacity:1"/></radialGradient>
        <radialGradient id="_Radial9" cx="0" cy="0" r="1" gradientUnits="userSpaceOnUse" gradientTransform="matrix(114.602,0,0,114.602,268.444,560.898)"><stop offset="0" style="stop-color:white;stop-opacity:1"/><stop offset="0.48" style="stop-color:rgb(86,223,172);stop-opacity:1"/><stop offset="1" style="stop-color:rgb(34,213,147);stop-opacity:1"/></radialGradient>
        <radialGradient id="_Radial10" cx="0" cy="0" r="1" gradientUnits="userSpaceOnUse" gradientTransform="matrix(114.602,0,0,114.602,268.444,560.898)"><stop offset="0" style="stop-color:white;stop-opacity:1"/><stop offset="0.48" style="stop-color:rgb(86,223,172);stop-opacity:1"/><stop offset="1" style="stop-color:rgb(34,213,147);stop-opacity:1"/></radialGradient>
        <radialGradient id="_Radial11" cx="0" cy="0" r="1" gradientUnits="userSpaceOnUse" gradientTransform="matrix(114.602,0,0,114.602,268.444,560.898)"><stop offset="0" style="stop-color:white;stop-opacity:1"/><stop offset="0.48" style="stop-color:rgb(86,223,172);stop-opacity:1"/><stop offset="1" style="stop-color:rgb(34,213,147);stop-opacity:1"/></radialGradient>
        <radialGradient id="_Radial12" cx="0" cy="0" r="1" gradientUnits="userSpaceOnUse" gradientTransform="matrix(114.602,0,0,114.602,268.444,560.898)"><stop offset="0" style="stop-color:white;stop-opacity:1"/><stop offset="0.48" style="stop-color:rgb(86,223,172);stop-opacity:1"/><stop offset="1" style="stop-color:rgb(34,213,147);stop-opacity:1"/></radialGradient>
        <radialGradient id="_Radial13" cx="0" cy="0" r="1" gradientUnits="userSpaceOnUse" gradientTransform="matrix(114.602,0,0,114.602,268.444,560.898)"><stop offset="0" style="stop-color:white;stop-opacity:1"/><stop offset="0.48" style="stop-color:rgb(86,223,172);stop-opacity:1"/><stop offset="1" style="stop-color:rgb(34,213,147);stop-opacity:1"/></radialGradient>
        <radialGradient id="_Radial14" cx="0" cy="0" r="1" gradientUnits="userSpaceOnUse" gradientTransform="matrix(114.602,0,0,114.602,268.444,560.898)"><stop offset="0" style="stop-color:white;stop-opacity:1"/><stop offset="0.48" style="stop-color:rgb(86,223,172);stop-opacity:1"/><stop offset="1" style="stop-color:rgb(34,213,147);stop-opacity:1"/></radialGradient>
        <radialGradient id="_Radial15" cx="0" cy="0" r="1" gradientUnits="userSpaceOnUse" gradientTransform="matrix(114.602,0,0,114.602,268.444,560.898)"><stop offset="0" style="stop-color:white;stop-opacity:1"/><stop offset="0.48" style="stop-color:rgb(86,223,172);stop-opacity:1"/><stop offset="1" style="stop-color:rgb(34,213,147);stop-opacity:1"/></radialGradient>
        <radialGradient id="_Radial16" cx="0" cy="0" r="1" gradientUnits="userSpaceOnUse" gradientTransform="matrix(114.602,0,0,114.602,268.444,560.898)"><stop offset="0" style="stop-color:white;stop-opacity:1"/><stop offset="0.48" style="stop-color:rgb(86,223,172);stop-opacity:1"/><stop offset="1" style="stop-color:rgb(34,213,147);stop-opacity:1"/></radialGradient>
        <radialGradient id="_Radial17" cx="0" cy="0" r="1" gradientUnits="userSpaceOnUse" gradientTransform="matrix(114.602,0,0,114.602,268.444,560.898)"><stop offset="0" style="stop-color:white;stop-opacity:1"/><stop offset="0.48" style="stop-color:rgb(86,223,172);stop-opacity:1"/><stop offset="1" style="stop-color:rgb(34,213,147);stop-opacity:1"/></radialGradient>
        <radialGradient id="_Radial18" cx="0" cy="0" r="1" gradientUnits="userSpaceOnUse" gradientTransform="matrix(114.602,0,0,114.602,268.444,560.898)"><stop offset="0" style="stop-color:white;stop-opacity:1"/><stop offset="0.48" style="stop-color:rgb(86,223,172);stop-opacity:1"/><stop offset="1" style="stop-color:rgb(34,213,147);stop-opacity:1"/></radialGradient>
        <radialGradient id="_Radial19" cx="0" cy="0" r="1" gradientUnits="userSpaceOnUse" gradientTransform="matrix(114.602,0,0,114.602,268.444,560.898)"><stop offset="0" style="stop-color:white;stop-opacity:1"/><stop offset="0.48" style="stop-color:rgb(86,223,172);stop-opacity:1"/><stop offset="1" style="stop-color:rgb(34,213,147);stop-opacity:1"/></radialGradient>
        <radialGradient id="_Radial20" cx="0" cy="0" r="1" gradientUnits="userSpaceOnUse" gradientTransform="matrix(114.602,0,0,114.602,268.444,560.898)"><stop offset="0" style="stop-color:white;stop-opacity:1"/><stop offset="0.48" style="stop-color:rgb(86,223,172);stop-opacity:1"/><stop offset="1" style="stop-color:rgb(34,213,147);stop-opacity:1"/></radialGradient>
        <radialGradient id="_Radial21" cx="0" cy="0" r="1" gradientUnits="userSpaceOnUse" gradientTransform="matrix(114.602,0,0,114.602,268.444,560.898)"><stop offset="0" style="stop-color:white;stop-opacity:1"/><stop offset="0.48" style="stop-color:rgb(86,223,172);stop-opacity:1"/><stop offset="1" style="stop-color:rgb(34,213,147);stop-opacity:1"/></radialGradient>
        <radialGradient id="_Radial22" cx="0" cy="0" r="1" gradientUnits="userSpaceOnUse" gradientTransform="matrix(114.602,0,0,114.602,268.444,560.898)"><stop offset="0" style="stop-color:white;stop-opacity:1"/><stop offset="0.48" style="stop-color:rgb(86,223,172);stop-opacity:1"/><stop offset="1" style="stop-color:rgb(34,213,147);stop-opacity:1"/></radialGradient>
        <radialGradient id="_Radial23" cx="0" cy="0" r="1" gradientUnits="userSpaceOnUse" gradientTransform="matrix(114.602,0,0,114.602,268.444,560.898)"><stop offset="0" style="stop-color:white;stop-opacity:1"/><stop offset="0.48" style="stop-color:rgb(86,223,172);stop-opacity:1"/><stop offset="1" style="stop-color:rgb(34,213,147);stop-opacity:1"/></radialGradient>
        <radialGradient id="_Radial24" cx="0" cy="0" r="1" gradientUnits="userSpaceOnUse" gradientTransform="matrix(114.602,0,0,114.602,268.444,560.898)"><stop offset="0" style="stop-color:white;stop-opacity:1"/><stop offset="0.48" style="stop-color:rgb(86,223,172);stop-opacity:1"/><stop offset="1" style="stop-color:rgb(34,213,147);stop-opacity:1"/></radialGradient>
    </defs>
</svg>
