<?xml version="1.0" encoding="UTF-8" standalone="no"?>
<!DOCTYPE svg PUBLIC "-//W3C//DTD SVG 1.1//EN" "http://www.w3.org/Graphics/SVG/1.1/DTD/svg11.dtd">
<svg width="100%" height="100%" viewBox="0 0 27166 5315" version="1.1" xmlns="http://www.w3.org/2000/svg" xmlns:xlink="http://www.w3.org/1999/xlink" xml:space="preserve" xmlns:serif="http://www.serif.com/" style="fill-rule:evenodd;clip-rule:evenodd;stroke-linecap:round;stroke-linejoin:round;stroke-miterlimit:1.5;">
    <g transform="matrix(7.5943,-0.0103846,0.000932833,0.571177,-51550.7,3583.8)">
        <path d="M10372.6,2746.08C10141.7,2382.28 9413.93,2132.07 8586.82,2132.07C7759.71,2132.07 7031.99,2382.28 6800.99,2746.08L10372.6,2746.08Z" style="fill:rgb(235,235,235);"/>
    </g>
    <g transform="matrix(4.04908,-1.03348e-16,0.0921157,4.27398,1231.28,2112.36)">
        <path d="M236.291,596.012C198.051,591.723 168.284,559.244 168.284,519.867C168.284,492.969 182.388,468.04 205.445,454.187L215.22,470.455C197.874,480.877 187.264,499.631 187.264,519.867C187.264,551.682 213.094,577.513 244.909,577.513C276.725,577.513 302.555,551.682 302.555,519.867C302.555,499.272 291.568,480.242 273.732,469.945L283.222,453.508C306.93,467.196 321.534,492.492 321.534,519.867C321.534,559.244 291.768,591.723 253.528,596.012L253.528,661.305L236.291,661.305L236.291,596.012Z" style="fill:rgb(0,157,99);"/>
    </g>
    <g transform="matrix(4.04908,-1.03348e-16,0.0921157,4.27398,2384.1,2112.36)">
        <path d="M236.291,596.012C198.051,591.723 168.284,559.244 168.284,519.867C168.284,492.969 182.388,468.04 205.445,454.187L215.22,470.455C197.874,480.877 187.264,499.631 187.264,519.867C187.264,551.682 213.094,577.513 244.909,577.513C276.725,577.513 302.555,551.682 302.555,519.867C302.555,499.272 291.568,480.242 273.732,469.945L283.222,453.508C306.93,467.196 321.534,492.492 321.534,519.867C321.534,559.244 291.768,591.723 253.528,596.012L253.528,661.305L236.291,661.305L236.291,596.012Z" style="fill:rgb(0,157,99);"/>
    </g>
    <g transform="matrix(4.04908,-1.03348e-16,0.0921157,4.27398,3468.3,2098.38)">
        <path d="M236.291,596.012C198.051,591.723 168.284,559.244 168.284,519.867C168.284,492.969 182.388,468.04 205.445,454.187L215.22,470.455C197.874,480.877 187.264,499.631 187.264,519.867C187.264,551.682 213.094,577.513 244.909,577.513C276.725,577.513 302.555,551.682 302.555,519.867C302.555,499.272 291.568,480.242 273.732,469.945L283.222,453.508C306.93,467.196 321.534,492.492 321.534,519.867C321.534,559.244 291.768,591.723 253.528,596.012L253.528,661.305L236.291,661.305L236.291,596.012Z" style="fill:rgb(0,157,99);"/>
    </g>
    <g transform="matrix(4.04908,-1.03348e-16,0.0921157,4.27398,4525.05,2112.36)">
        <path d="M236.291,596.012C198.051,591.723 168.284,559.244 168.284,519.867C168.284,492.969 182.388,468.04 205.445,454.187L215.22,470.455C197.874,480.877 187.264,499.631 187.264,519.867C187.264,551.682 213.094,577.513 244.909,577.513C276.725,577.513 302.555,551.682 302.555,519.867C302.555,499.272 291.568,480.242 273.732,469.945L283.222,453.508C306.93,467.196 321.534,492.492 321.534,519.867C321.534,559.244 291.768,591.723 253.528,596.012L253.528,661.305L236.291,661.305L236.291,596.012Z" style="fill:rgb(0,157,99);"/>
    </g>
    <g transform="matrix(4.04908,-1.03348e-16,0.0921157,4.27398,5609.25,2112.36)">
        <path d="M236.291,596.012C198.051,591.723 168.284,559.244 168.284,519.867C168.284,492.969 182.388,468.04 205.445,454.187L215.22,470.455C197.874,480.877 187.264,499.631 187.264,519.867C187.264,551.682 213.094,577.513 244.909,577.513C276.725,577.513 302.555,551.682 302.555,519.867C302.555,499.272 291.568,480.242 273.732,469.945L283.222,453.508C306.93,467.196 321.534,492.492 321.534,519.867C321.534,559.244 291.768,591.723 253.528,596.012L253.528,661.305L236.291,661.305L236.291,596.012Z" style="fill:rgb(0,157,99);"/>
    </g>
    <g transform="matrix(-1.19503,-0.497312,0.438508,-1.20836,2217.53,3320.69)">
        <circle cx="268.444" cy="560.898" r="114.602" style="fill:url(#_Radial1);stroke:rgb(255,204,0);stroke-width:26.79px;"/>
    </g>
    <g transform="matrix(-1.19503,-0.497312,0.438508,-1.20836,2346.39,5152.6)">
        <circle cx="268.444" cy="560.898" r="114.602" style="fill:url(#_Radial2);stroke:rgb(255,204,0);stroke-width:26.79px;"/>
    </g>
    <g transform="matrix(-1.19503,-0.497312,0.438508,-1.20836,4879.99,2258.4)">
        <circle cx="268.444" cy="560.898" r="114.602" style="fill:url(#_Radial3);stroke:rgb(255,204,0);stroke-width:26.79px;"/>
    </g>
    <g transform="matrix(-1.19503,-0.497312,0.438508,-1.20836,7034.67,3544.33)">
        <circle cx="268.444" cy="560.898" r="114.602" style="fill:url(#_Radial4);stroke:rgb(255,204,0);stroke-width:26.79px;"/>
    </g>
    <g transform="matrix(-1.19503,-0.497312,0.438508,-1.20836,7322.87,2342.26)">
        <circle cx="268.444" cy="560.898" r="114.602" style="fill:url(#_Radial5);stroke:rgb(255,204,0);stroke-width:26.79px;"/>
    </g>
    <g transform="matrix(-1.19503,-0.497312,0.438508,-1.20836,6101.43,1396.15)">
        <circle cx="268.444" cy="560.898" r="114.602" style="fill:url(#_Radial6);stroke:rgb(255,204,0);stroke-width:26.79px;"/>
    </g>
    <g transform="matrix(-1.19503,-0.497312,0.438508,-1.20836,2231.25,1633.77)">
        <circle cx="268.444" cy="560.898" r="114.602" style="fill:url(#_Radial7);stroke:rgb(255,204,0);stroke-width:26.79px;"/>
    </g>
    <g transform="matrix(-1.19503,-0.497312,0.438508,-1.20836,4564.34,3418.53)">
        <circle cx="268.444" cy="560.898" r="114.602" style="fill:url(#_Radial8);stroke:rgb(255,204,0);stroke-width:26.79px;"/>
    </g>
    <g transform="matrix(-1.19503,-0.497312,0.438508,-1.20836,4591.79,5137.78)">
        <circle cx="268.444" cy="560.898" r="114.602" style="fill:url(#_Radial9);stroke:rgb(255,204,0);stroke-width:26.79px;"/>
    </g>
    <g transform="matrix(4.04908,-1.03348e-16,0.0921157,4.27398,20724,2083.7)">
        <path d="M236.291,596.012C198.051,591.723 168.284,559.244 168.284,519.867C168.284,492.969 182.388,468.04 205.445,454.187L215.22,470.455C197.874,480.877 187.264,499.631 187.264,519.867C187.264,551.682 213.094,577.513 244.909,577.513C276.725,577.513 302.555,551.682 302.555,519.867C302.555,499.272 291.568,480.242 273.732,469.945L283.222,453.508C306.93,467.196 321.534,492.492 321.534,519.867C321.534,559.244 291.768,591.723 253.528,596.012L253.528,661.305L236.291,661.305L236.291,596.012Z" style="fill:rgb(0,157,99);"/>
    </g>
    <g transform="matrix(4.04908,-1.03348e-16,0.0921157,4.27398,21876.8,2083.7)">
        <path d="M236.291,596.012C198.051,591.723 168.284,559.244 168.284,519.867C168.284,492.969 182.388,468.04 205.445,454.187L215.22,470.455C197.874,480.877 187.264,499.631 187.264,519.867C187.264,551.682 213.094,577.513 244.909,577.513C276.725,577.513 302.555,551.682 302.555,519.867C302.555,499.272 291.568,480.242 273.732,469.945L283.222,453.508C306.93,467.196 321.534,492.492 321.534,519.867C321.534,559.244 291.768,591.723 253.528,596.012L253.528,661.305L236.291,661.305L236.291,596.012Z" style="fill:rgb(0,157,99);"/>
    </g>
    <g transform="matrix(4.04908,-1.03348e-16,0.0921157,4.27398,19639.8,2083.7)">
        <path d="M236.291,596.012C198.051,591.723 168.284,559.244 168.284,519.867C168.284,492.969 182.388,468.04 205.445,454.187L215.22,470.455C197.874,480.877 187.264,499.631 187.264,519.867C187.264,551.682 213.094,577.513 244.909,577.513C276.725,577.513 302.555,551.682 302.555,519.867C302.555,499.272 291.568,480.242 273.732,469.945L283.222,453.508C306.93,467.196 321.534,492.492 321.534,519.867C321.534,559.244 291.768,591.723 253.528,596.012L253.528,661.305L236.291,661.305L236.291,596.012Z" style="fill:rgb(0,157,99);"/>
    </g>
    <g transform="matrix(4.04908,-1.03348e-16,0.0921157,4.27398,14818.5,2045.01)">
        <path d="M236.291,596.012C198.051,591.723 168.284,559.244 168.284,519.867C168.284,492.969 182.388,468.04 205.445,454.187L215.22,470.455C197.874,480.877 187.264,499.631 187.264,519.867C187.264,551.682 213.094,577.513 244.909,577.513C276.725,577.513 302.555,551.682 302.555,519.867C302.555,499.272 291.568,480.242 273.732,469.945L283.222,453.508C306.93,467.196 321.534,492.492 321.534,519.867C321.534,559.244 291.768,591.723 253.528,596.012L253.528,661.305L236.291,661.305L236.291,596.012Z" style="fill:rgb(0,157,99);"/>
    </g>
    <g transform="matrix(4.04908,-1.03348e-16,0.0921157,4.27398,22896.7,2069.72)">
        <path d="M236.291,596.012C198.051,591.723 168.284,559.244 168.284,519.867C168.284,492.969 182.388,468.04 205.445,454.187L215.22,470.455C197.874,480.877 187.264,499.631 187.264,519.867C187.264,551.682 213.094,577.513 244.909,577.513C276.725,577.513 302.555,551.682 302.555,519.867C302.555,499.272 291.568,480.242 273.732,469.945L283.222,453.508C306.93,467.196 321.534,492.492 321.534,519.867C321.534,559.244 291.768,591.723 253.528,596.012L253.528,661.305L236.291,661.305L236.291,596.012Z" style="fill:rgb(0,157,99);"/>
    </g>
    <g transform="matrix(4.04908,-1.03348e-16,0.0921157,4.27398,23846.2,2083.7)">
        <path d="M236.291,596.012C198.051,591.723 168.284,559.244 168.284,519.867C168.284,492.969 182.388,468.04 205.445,454.187L215.22,470.455C197.874,480.877 187.264,499.631 187.264,519.867C187.264,551.682 213.094,577.513 244.909,577.513C276.725,577.513 302.555,551.682 302.555,519.867C302.555,499.272 291.568,480.242 273.732,469.945L283.222,453.508C306.93,467.196 321.534,492.492 321.534,519.867C321.534,559.244 291.768,591.723 253.528,596.012L253.528,661.305L236.291,661.305L236.291,596.012Z" style="fill:rgb(0,157,99);"/>
    </g>
    <g transform="matrix(4.04908,-1.03348e-16,0.0921157,4.27398,24590.1,2094.88)">
        <path d="M236.291,596.012C198.051,591.723 168.284,559.244 168.284,519.867C168.284,492.969 182.388,468.04 205.445,454.187L215.22,470.455C197.874,480.877 187.264,499.631 187.264,519.867C187.264,551.682 213.094,577.513 244.909,577.513C276.725,577.513 302.555,551.682 302.555,519.867C302.555,499.272 291.568,480.242 273.732,469.945L283.222,453.508C306.93,467.196 321.534,492.492 321.534,519.867C321.534,559.244 291.768,591.723 253.528,596.012L253.528,661.305L236.291,661.305L236.291,596.012Z" style="fill:rgb(0,157,99);"/>
    </g>
    <g transform="matrix(-1.19503,-0.497312,0.438508,-1.20836,21839.1,5123.94)">
        <circle cx="268.444" cy="560.898" r="114.602" style="fill:url(#_Radial10);stroke:rgb(255,204,0);stroke-width:26.79px;"/>
    </g>
    <g transform="matrix(-1.19503,-0.497312,0.438508,-1.20836,3150.76,2440.1)">
        <circle cx="268.444" cy="560.898" r="114.602" style="fill:url(#_Radial11);stroke:rgb(255,204,0);stroke-width:26.79px;"/>
    </g>
    <g transform="matrix(1.48446e-17,-0.644135,1.19052,-0.00744582,689.658,9365.36)">
        <path d="M8704.47,3279.03L8704.47,3407.22L8339.98,3210.01L8704.47,3012.8L8704.47,3140.99L9602.47,3140.99L9602.47,3012.8L9966.96,3210.01L9602.47,3407.22L9602.47,3279.03L8704.47,3279.03Z" style="fill:rgb(16,255,0);"/>
    </g>
    <g transform="matrix(2.0843,0,0,2.52536,-12880.9,-4731.07)">
        <text x="7943.75px" y="3272.49px" style="font-family:'ArialMT', 'Arial', sans-serif;font-size:225.537px;fill:rgb(30,162,29);">K</text>
    </g>
    <g transform="matrix(2.0843,0,0,2.52536,-21853.9,-3626.61)">
        <text x="12398.1px" y="2890.37px" style="font-family:'ArialMT', 'Arial', sans-serif;font-size:124.045px;fill:rgb(30,162,29);">D</text>
    </g>
    <g transform="matrix(4.04908,-1.03348e-16,0.0921157,4.27398,10414.4,2037.9)">
        <path d="M236.291,596.012C198.051,591.723 168.284,559.244 168.284,519.867C168.284,492.969 182.388,468.04 205.445,454.187L215.22,470.455C197.874,480.877 187.264,499.631 187.264,519.867C187.264,551.682 213.094,577.513 244.909,577.513C276.725,577.513 302.555,551.682 302.555,519.867C302.555,499.272 291.568,480.242 273.732,469.945L283.222,453.508C306.93,467.196 321.534,492.492 321.534,519.867C321.534,559.244 291.768,591.723 253.528,596.012L253.528,661.305L236.291,661.305L236.291,596.012Z" style="fill:rgb(19,3,242);"/>
    </g>
    <g transform="matrix(4.04908,-1.03348e-16,0.0921157,4.27398,11567.2,2037.9)">
        <path d="M236.291,596.012C198.051,591.723 168.284,559.244 168.284,519.867C168.284,492.969 182.388,468.04 205.445,454.187L215.22,470.455C197.874,480.877 187.264,499.631 187.264,519.867C187.264,551.682 213.094,577.513 244.909,577.513C276.725,577.513 302.555,551.682 302.555,519.867C302.555,499.272 291.568,480.242 273.732,469.945L283.222,453.508C306.93,467.196 321.534,492.492 321.534,519.867C321.534,559.244 291.768,591.723 253.528,596.012L253.528,661.305L236.291,661.305L236.291,596.012Z" style="fill:rgb(13,14,240);"/>
    </g>
    <g transform="matrix(4.04908,-1.03348e-16,0.0921157,4.27398,12651.4,2023.92)">
        <path d="M236.291,596.012C198.051,591.723 168.284,559.244 168.284,519.867C168.284,492.969 182.388,468.04 205.445,454.187L215.22,470.455C197.874,480.877 187.264,499.631 187.264,519.867C187.264,551.682 213.094,577.513 244.909,577.513C276.725,577.513 302.555,551.682 302.555,519.867C302.555,499.272 291.568,480.242 273.732,469.945L283.222,453.508C306.93,467.196 321.534,492.492 321.534,519.867C321.534,559.244 291.768,591.723 253.528,596.012L253.528,661.305L236.291,661.305L236.291,596.012Z" style="fill:rgb(48,8,248);"/>
    </g>
    <g transform="matrix(4.04908,-1.03348e-16,0.0921157,4.27398,13708.2,2037.9)">
        <path d="M236.291,596.012C198.051,591.723 168.284,559.244 168.284,519.867C168.284,492.969 182.388,468.04 205.445,454.187L215.22,470.455C197.874,480.877 187.264,499.631 187.264,519.867C187.264,551.682 213.094,577.513 244.909,577.513C276.725,577.513 302.555,551.682 302.555,519.867C302.555,499.272 291.568,480.242 273.732,469.945L283.222,453.508C306.93,467.196 321.534,492.492 321.534,519.867C321.534,559.244 291.768,591.723 253.528,596.012L253.528,661.305L236.291,661.305L236.291,596.012Z" style="fill:rgb(53,139,53);"/>
    </g>
    <g transform="matrix(4.04908,-1.03348e-16,0.0921157,4.27398,14814,2045.43)">
        <clipPath id="_clip12">
            <rect x="245.668" y="453.508" width="75.866" height="207.797"/>
        </clipPath>
        <g clip-path="url(#_clip12)">
            <path d="M236.291,596.012C198.051,591.723 168.284,559.244 168.284,519.867C168.284,492.969 182.388,468.04 205.445,454.187L215.22,470.455C197.874,480.877 187.264,499.631 187.264,519.867C187.264,551.682 213.094,577.513 244.909,577.513C276.725,577.513 302.555,551.682 302.555,519.867C302.555,499.272 291.568,480.242 273.732,469.945L283.222,453.508C306.93,467.196 321.534,492.492 321.534,519.867C321.534,559.244 291.768,591.723 253.528,596.012L253.528,661.305L236.291,661.305L236.291,596.012Z" style="fill:rgb(3,0,255);"/>
        </g>
    </g>
    <g transform="matrix(-1.19503,-0.497312,0.438508,-1.20836,12044.6,3382.58)">
        <circle cx="268.444" cy="560.898" r="114.602" style="fill:url(#_Radial13);stroke:rgb(255,204,0);stroke-width:26.79px;"/>
    </g>
    <g transform="matrix(-1.19503,-0.497312,0.438508,-1.20836,11086.9,3537.25)">
        <circle cx="268.444" cy="560.898" r="114.602" style="fill:url(#_Radial14);stroke:rgb(255,204,0);stroke-width:26.79px;"/>
    </g>
    <g transform="matrix(-1.19503,-0.497312,0.438508,-1.20836,14063.1,2183.94)">
        <circle cx="268.444" cy="560.898" r="114.602" style="fill:url(#_Radial15);stroke:rgb(255,204,0);stroke-width:26.79px;"/>
    </g>
    <g transform="matrix(-1.19503,-0.497312,0.438508,-1.20836,16217.8,3469.87)">
        <circle cx="268.444" cy="560.898" r="114.602" style="fill:url(#_Radial16);stroke:rgb(255,204,0);stroke-width:26.79px;"/>
    </g>
    <g transform="matrix(-1.19503,-0.497312,0.438508,-1.20836,15789.5,2170.72)">
        <circle cx="268.444" cy="560.898" r="114.602" style="fill:url(#_Radial17);stroke:rgb(255,204,0);stroke-width:26.79px;"/>
    </g>
    <g transform="matrix(-1.19503,-0.497312,0.438508,-1.20836,15284.6,1321.69)">
        <circle cx="268.444" cy="560.898" r="114.602" style="fill:url(#_Radial18);stroke:rgb(255,204,0);stroke-width:26.79px;"/>
    </g>
    <g transform="matrix(-1.19503,-0.497312,0.438508,-1.20836,11414.4,1559.31)">
        <circle cx="268.444" cy="560.898" r="114.602" style="fill:url(#_Radial19);stroke:rgb(255,204,0);stroke-width:26.79px;"/>
    </g>
    <g transform="matrix(-1.19503,-0.497312,0.438508,-1.20836,13747.5,3344.07)">
        <circle cx="268.444" cy="560.898" r="114.602" style="fill:url(#_Radial20);stroke:rgb(255,204,0);stroke-width:26.79px;"/>
    </g>
    <g transform="matrix(-1.19503,-0.497312,0.438508,-1.20836,13779.8,5083.03)">
        <circle cx="268.444" cy="560.898" r="114.602" style="fill:url(#_Radial21);stroke:rgb(255,204,0);stroke-width:26.79px;"/>
    </g>
    <g transform="matrix(-1.19503,-0.497312,0.438508,-1.20836,15926.4,5081.04)">
        <circle cx="268.444" cy="560.898" r="114.602" style="fill:url(#_Radial22);stroke:rgb(255,204,0);stroke-width:26.79px;"/>
    </g>
    <g transform="matrix(-1.19503,-0.497312,0.438508,-1.20836,12333.9,2365.64)">
        <circle cx="268.444" cy="560.898" r="114.602" style="fill:url(#_Radial23);stroke:rgb(255,204,0);stroke-width:26.79px;"/>
    </g>
    <g transform="matrix(1.48446e-17,-0.644135,1.19052,-0.00744582,9872.81,9290.9)">
        <path d="M8704.47,3279.03L8704.47,3407.22L8339.98,3210.01L8704.47,3012.8L8704.47,3140.99L9602.47,3140.99L9602.47,3012.8L9966.96,3210.01L9602.47,3407.22L9602.47,3279.03L8704.47,3279.03Z" style="fill:rgb(16,255,0);"/>
    </g>
    <g transform="matrix(2.0843,0,0,2.52536,-3716.37,-4867.34)">
        <text x="7943.75px" y="3272.49px" style="font-family:'ArialMT', 'Arial', sans-serif;font-size:225.537px;fill:rgb(9,5,247);">K</text>
    </g>
    <g transform="matrix(2.0843,0,0,2.52536,-12689.4,-3762.88)">
        <text x="12398.1px" y="2890.37px" style="font-family:'ArialMT', 'Arial', sans-serif;font-size:124.045px;fill:rgb(9,5,247);">D</text>
    </g>
    <g transform="matrix(1.48446e-17,-0.644135,1.19052,-0.00744582,17930.3,8774.81)">
        <path d="M8704.47,3279.03L8704.47,3407.22L8339.98,3210.01L8704.47,3012.8L8704.47,3140.99L9602.47,3140.99L9602.47,3012.8L9966.96,3210.01L9602.47,3407.22L9602.47,3279.03L8704.47,3279.03Z" style="fill:rgb(16,255,0);"/>
    </g>
    <g transform="matrix(0.97661,-2.26073e-17,0.00731077,1.21252,14642.2,-306.392)">
        <path d="M8584.83,3279.03L8584.83,3407.22L8339.98,3210.01L8584.83,3012.8L8584.83,3140.99L9722.11,3140.99L9722.11,3012.8L9966.96,3210.01L9722.11,3407.22L9722.11,3279.03L8584.83,3279.03Z" style="fill:rgb(16,255,0);"/>
    </g>
    <g transform="matrix(2.0843,0,0,2.52536,4414.65,-5343.99)">
        <text x="7943.75px" y="3272.49px" style="font-family:'ArialMT', 'Arial', sans-serif;font-size:225.537px;fill:rgb(30,162,29);">K</text>
    </g>
    <g transform="matrix(2.0843,0,0,2.52536,-4558.37,-4239.53)">
        <text x="12398.1px" y="2890.37px" style="font-family:'ArialMT', 'Arial', sans-serif;font-size:124.045px;fill:rgb(30,162,29);">D</text>
    </g>
    <g transform="matrix(2.0843,0,0,2.52536,6281.12,-5243.35)">
        <text x="7943.75px" y="3272.49px" style="font-family:'ArialMT', 'Arial', sans-serif;font-size:225.537px;fill:rgb(30,162,29);">K</text>
    </g>
    <g transform="matrix(2.0843,0,0,2.52536,-2691.9,-4138.89)">
        <text x="12398.1px" y="2890.37px" style="font-family:'ArialMT', 'Arial', sans-serif;font-size:124.045px;fill:rgb(30,162,29);">D</text>
    </g>
    <g transform="matrix(2.0843,0,0,2.52536,7060.64,-5220.99)">
        <text x="7943.75px" y="3272.49px" style="font-family:'ArialMT', 'Arial', sans-serif;font-size:225.537px;fill:rgb(133,29,162);">K</text>
    </g>
    <g transform="matrix(2.0843,0,0,2.52536,-1912.38,-4116.53)">
        <text x="12398.1px" y="2890.37px" style="font-family:'ArialMT', 'Arial', sans-serif;font-size:124.045px;fill:rgb(133,29,162);">X</text>
    </g>
    <g transform="matrix(2.0843,0,0,2.52536,-2439.38,-4340.17)">
        <text x="12398.1px" y="2890.37px" style="font-family:'ArialMT', 'Arial', sans-serif;font-size:124.045px;fill:rgb(10,0,12);">x</text>
    </g>
    <g transform="matrix(-0.412808,-1.0172,1.0846,-0.417154,24662.5,2624.61)">
        <circle cx="268.444" cy="560.898" r="114.602" style="fill:url(#_Radial24);stroke:rgb(255,204,0);stroke-width:26.79px;"/>
    </g>
    <g transform="matrix(-0.412808,-1.0172,1.0846,-0.417154,24174.6,2122.08)">
        <circle cx="268.444" cy="560.898" r="114.602" style="fill:url(#_Radial25);stroke:rgb(255,204,0);stroke-width:26.79px;"/>
    </g>
    <g transform="matrix(0.834906,0.885133,-1.02387,0.930494,28823.3,-3785.49)">
        <path d="M1250.06,4237.23C1250.06,4229.03 1242.49,4222.38 1233.17,4222.38L1199.39,4222.38C1190.06,4222.38 1182.49,4229.03 1182.49,4237.23L1182.49,4534.1C1182.49,4542.31 1190.06,4548.96 1199.39,4548.96L1233.17,4548.96C1242.49,4548.96 1250.06,4542.31 1250.06,4534.1L1250.06,4237.23Z" style="fill:rgb(167,163,184);stroke:black;stroke-opacity:0;stroke-width:13.88px;"/>
    </g>
    <g transform="matrix(0.834906,0.885133,-1.02387,0.930494,28891.5,-3713.18)">
        <path d="M1250.06,4237.23C1250.06,4229.03 1242.49,4222.38 1233.17,4222.38L1199.39,4222.38C1190.06,4222.38 1182.49,4229.03 1182.49,4237.23L1182.49,4534.1C1182.49,4542.31 1190.06,4548.96 1199.39,4548.96L1233.17,4548.96C1242.49,4548.96 1250.06,4542.31 1250.06,4534.1L1250.06,4237.23Z" style="fill:rgb(167,163,184);stroke:black;stroke-opacity:0;stroke-width:13.88px;"/>
    </g>
    <g transform="matrix(1.58564,0.311286,-0.138857,0.960776,23896.1,-2795.6)">
        <path d="M1250.06,4250.53C1250.06,4234.99 1242.49,4222.38 1233.17,4222.38L1199.39,4222.38C1190.06,4222.38 1182.49,4234.99 1182.49,4250.53L1182.49,4520.81C1182.49,4536.35 1190.06,4548.96 1199.39,4548.96L1233.17,4548.96C1242.49,4548.96 1250.06,4536.35 1250.06,4520.81L1250.06,4250.53Z" style="fill:rgb(167,163,184);stroke:black;stroke-opacity:0;stroke-width:13.15px;"/>
    </g>
    <g transform="matrix(0.194304,1.57574,-0.986595,0.0620384,29072.3,-638.408)">
        <path d="M1250.06,4249.55C1250.06,4234.55 1242.49,4222.38 1233.17,4222.38L1199.39,4222.38C1190.06,4222.38 1182.49,4234.55 1182.49,4249.55L1182.49,4521.78C1182.49,4536.78 1190.06,4548.96 1199.39,4548.96L1233.17,4548.96C1242.49,4548.96 1250.06,4536.78 1250.06,4521.78L1250.06,4249.55Z" style="fill:rgb(167,163,184);stroke:black;stroke-opacity:0;stroke-width:13.93px;"/>
    </g>
    <g transform="matrix(-1.19178,-0.512072,0.541413,-1.20209,25644.5,5108.89)">
        <circle cx="268.444" cy="560.898" r="114.602" style="fill:url(#_Radial26);stroke:rgb(255,204,0);stroke-width:26.79px;"/>
    </g>
    <g transform="matrix(-1.24325,-0.534186,0.559234,-1.24166,24891.1,5141.47)">
        <circle cx="268.444" cy="560.898" r="114.602" style="fill:url(#_Radial27);stroke:rgb(255,204,0);stroke-width:26.79px;"/>
    </g>
    <g transform="matrix(1.60138,-0.0235513,-0.0468552,1.76103,23447.1,-4299.51)">
        <path d="M1250.06,4237.74C1250.06,4229.26 1242.49,4222.38 1233.17,4222.38L1199.39,4222.38C1190.06,4222.38 1182.49,4229.26 1182.49,4237.74L1182.49,4533.59C1182.49,4542.08 1190.06,4548.96 1199.39,4548.96L1233.17,4548.96C1242.49,4548.96 1250.06,4542.08 1250.06,4533.59L1250.06,4237.74Z" style="fill:rgb(167,163,184);stroke:black;stroke-opacity:0;stroke-width:10.87px;"/>
    </g>
    <g transform="matrix(1.60138,-0.0235513,-0.0468552,1.76103,23578,-4301.43)">
        <path d="M1250.06,4237.74C1250.06,4229.26 1242.49,4222.38 1233.17,4222.38L1199.39,4222.38C1190.06,4222.38 1182.49,4229.26 1182.49,4237.74L1182.49,4533.59C1182.49,4542.08 1190.06,4548.96 1199.39,4548.96L1233.17,4548.96C1242.49,4548.96 1250.06,4542.08 1250.06,4533.59L1250.06,4237.74Z" style="fill:rgb(167,163,184);stroke:black;stroke-opacity:0;stroke-width:10.87px;"/>
    </g>
    <g transform="matrix(1.73884,-1.22164,0.787245,0.955921,19904.9,1178.28)">
        <path d="M1250.06,4251.45C1250.06,4235.4 1242.49,4222.38 1233.17,4222.38L1199.39,4222.38C1190.06,4222.38 1182.49,4235.4 1182.49,4251.45L1182.49,4519.89C1182.49,4535.94 1190.06,4548.96 1199.39,4548.96L1233.17,4548.96C1242.49,4548.96 1250.06,4535.94 1250.06,4519.89L1250.06,4251.45Z" style="fill:rgb(167,163,184);stroke:black;stroke-opacity:0;stroke-width:9.98px;"/>
    </g>
    <g transform="matrix(1.67517,1.17143,-0.838749,0.979834,26666.2,-1829.27)">
        <path d="M1250.06,4249.27C1250.06,4234.43 1242.49,4222.38 1233.17,4222.38L1199.39,4222.38C1190.06,4222.38 1182.49,4234.43 1182.49,4249.27L1182.49,4522.06C1182.49,4536.91 1190.06,4548.96 1199.39,4548.96L1233.17,4548.96C1242.49,4548.96 1250.06,4536.91 1250.06,4522.06L1250.06,4249.27Z" style="fill:rgb(167,163,184);stroke:black;stroke-opacity:0;stroke-width:10.98px;"/>
    </g>
    <g transform="matrix(-1.07757,0.0837332,-0.0524922,-1.17956,22691.2,2476.93)">
        <circle cx="268.444" cy="560.898" r="114.602" style="fill:url(#_Radial28);stroke:rgb(255,204,0);stroke-width:26.79px;"/>
    </g>
    <g transform="matrix(-1.07757,0.0837332,-0.0524922,-1.17956,22070.6,2793.16)">
        <circle cx="268.444" cy="560.898" r="114.602" style="fill:url(#_Radial29);stroke:rgb(255,204,0);stroke-width:26.79px;"/>
    </g>
    <g transform="matrix(1.0854,-0.533387,0.550457,1.2802,18000.8,-3541.97)">
        <path d="M1250.06,4237.05C1250.06,4228.95 1242.49,4222.38 1233.17,4222.38L1199.39,4222.38C1190.06,4222.38 1182.49,4228.95 1182.49,4237.05L1182.49,4534.28C1182.49,4542.39 1190.06,4548.96 1199.39,4548.96L1233.17,4548.96C1242.49,4548.96 1250.06,4542.39 1250.06,4534.28L1250.06,4237.05Z" style="fill:rgb(167,163,184);stroke:black;stroke-opacity:0;stroke-width:14.09px;"/>
    </g>
    <g transform="matrix(1.0854,-0.533387,0.550457,1.2802,18089.5,-3585.54)">
        <path d="M1250.06,4237.05C1250.06,4228.95 1242.49,4222.38 1233.17,4222.38L1199.39,4222.38C1190.06,4222.38 1182.49,4228.95 1182.49,4237.05L1182.49,4534.28C1182.49,4542.39 1190.06,4548.96 1199.39,4548.96L1233.17,4548.96C1242.49,4548.96 1250.06,4542.39 1250.06,4534.28L1250.06,4237.05Z" style="fill:rgb(167,163,184);stroke:black;stroke-opacity:0;stroke-width:14.09px;"/>
    </g>
    <g transform="matrix(0.782977,-1.4384,0.853576,0.432816,17394.4,1535.57)">
        <path d="M1250.06,4251.29C1250.06,4235.33 1242.49,4222.38 1233.17,4222.38L1199.39,4222.38C1190.06,4222.38 1182.49,4235.33 1182.49,4251.29L1182.49,4520.04C1182.49,4536.01 1190.06,4548.96 1199.39,4548.96L1233.17,4548.96C1242.49,4548.96 1250.06,4536.01 1250.06,4520.04L1250.06,4251.29Z" style="fill:rgb(167,163,184);stroke:black;stroke-opacity:0;stroke-width:13.19px;"/>
    </g>
    <g transform="matrix(1.531,0.301268,-0.248505,0.974401,21015.3,-2805.6)">
        <path d="M1250.06,4248.63C1250.06,4234.14 1242.49,4222.38 1233.17,4222.38L1199.39,4222.38C1190.06,4222.38 1182.49,4234.14 1182.49,4248.63L1182.49,4522.71C1182.49,4537.2 1190.06,4548.96 1199.39,4548.96L1233.17,4548.96C1242.49,4548.96 1250.06,4537.2 1250.06,4522.71L1250.06,4248.63Z" style="fill:rgb(167,163,184);stroke:black;stroke-opacity:0;stroke-width:14.01px;"/>
    </g>
    <g transform="matrix(-1.00081,0.415337,-0.404152,-1.10671,22783.6,4268.97)">
        <circle cx="268.444" cy="560.898" r="114.602" style="fill:url(#_Radial30);stroke:rgb(255,204,0);stroke-width:26.79px;"/>
    </g>
    <g transform="matrix(0.873246,-0.845887,0.908479,1.04743,16510.7,-0.742475)">
        <path d="M1250.06,4237.21C1250.06,4229.02 1242.49,4222.38 1233.17,4222.38L1199.39,4222.38C1190.06,4222.38 1182.49,4229.02 1182.49,4237.21L1182.49,4534.13C1182.49,4542.32 1190.06,4548.96 1199.39,4548.96L1233.17,4548.96C1242.49,4548.96 1250.06,4542.32 1250.06,4534.13L1250.06,4237.21Z" style="fill:rgb(167,163,184);stroke:black;stroke-opacity:0;stroke-width:14.13px;"/>
    </g>
    <g transform="matrix(0.873246,-0.845887,0.908479,1.04743,16582,-69.8456)">
        <path d="M1250.06,4237.21C1250.06,4229.02 1242.49,4222.38 1233.17,4222.38L1199.39,4222.38C1190.06,4222.38 1182.49,4229.02 1182.49,4237.21L1182.49,4534.13C1182.49,4542.32 1190.06,4548.96 1199.39,4548.96L1233.17,4548.96C1242.49,4548.96 1250.06,4542.32 1250.06,4534.13L1250.06,4237.21Z" style="fill:rgb(167,163,184);stroke:black;stroke-opacity:0;stroke-width:14.13px;"/>
    </g>
    <g transform="matrix(0.313575,-1.61336,0.942642,0.14623,17458,5022.41)">
        <path d="M1250.06,4251.5C1250.06,4235.43 1242.49,4222.38 1233.17,4222.38L1199.39,4222.38C1190.06,4222.38 1182.49,4235.43 1182.49,4251.5L1182.49,4519.84C1182.49,4535.91 1190.06,4548.96 1199.39,4548.96L1233.17,4548.96C1242.49,4548.96 1250.06,4535.91 1250.06,4519.84L1250.06,4251.5Z" style="fill:rgb(167,163,184);stroke:black;stroke-opacity:0;stroke-width:13.12px;"/>
    </g>
    <g transform="matrix(1.54811,-0.190002,0.055973,1.00512,19601.9,-238.533)">
        <path d="M1250.06,4248.61C1250.06,4234.13 1242.49,4222.38 1233.17,4222.38L1199.39,4222.38C1190.06,4222.38 1182.49,4234.13 1182.49,4248.61L1182.49,4522.73C1182.49,4537.21 1190.06,4548.96 1199.39,4548.96L1233.17,4548.96C1242.49,4548.96 1250.06,4537.21 1250.06,4522.73L1250.06,4248.61Z" style="fill:rgb(167,163,184);stroke:black;stroke-opacity:0;stroke-width:14.08px;"/>
    </g>
    <g transform="matrix(-1.08068,-0.00760968,0.0437783,-1.17993,24376.6,1433.17)">
        <circle cx="268.444" cy="560.898" r="114.602" style="fill:url(#_Radial31);stroke:rgb(255,204,0);stroke-width:26.79px;"/>
    </g>
    <g transform="matrix(-1.08068,-0.00760968,0.0437783,-1.17993,23732.4,1695.88)">
        <circle cx="268.444" cy="560.898" r="114.602" style="fill:url(#_Radial32);stroke:rgb(255,204,0);stroke-width:26.79px;"/>
    </g>
    <g transform="matrix(1.12511,-0.439833,0.444272,1.3223,20192.7,-4961.31)">
        <path d="M1250.06,4237.02C1250.06,4228.94 1242.49,4222.38 1233.17,4222.38L1199.39,4222.38C1190.06,4222.38 1182.49,4228.94 1182.49,4237.02L1182.49,4534.32C1182.49,4542.4 1190.06,4548.96 1199.39,4548.96L1233.17,4548.96C1242.49,4548.96 1250.06,4542.4 1250.06,4534.32L1250.06,4237.02Z" style="fill:rgb(167,163,184);stroke:black;stroke-opacity:0;stroke-width:14.07px;"/>
    </g>
    <g transform="matrix(1.12511,-0.439833,0.444272,1.3223,20284.6,-4997.24)">
        <path d="M1250.06,4237.02C1250.06,4228.94 1242.49,4222.38 1233.17,4222.38L1199.39,4222.38C1190.06,4222.38 1182.49,4228.94 1182.49,4237.02L1182.49,4534.32C1182.49,4542.4 1190.06,4548.96 1199.39,4548.96L1233.17,4548.96C1242.49,4548.96 1250.06,4542.4 1250.06,4534.32L1250.06,4237.02Z" style="fill:rgb(167,163,184);stroke:black;stroke-opacity:0;stroke-width:14.07px;"/>
    </g>
    <g transform="matrix(0.897453,-1.36728,0.815376,0.50345,19174.8,47.4852)">
        <path d="M1250.06,4251.22C1250.06,4235.3 1242.49,4222.38 1233.17,4222.38L1199.39,4222.38C1190.06,4222.38 1182.49,4235.3 1182.49,4251.22L1182.49,4520.12C1182.49,4536.04 1190.06,4548.96 1199.39,4548.96L1233.17,4548.96C1242.49,4548.96 1250.06,4536.04 1250.06,4520.12L1250.06,4251.22Z" style="fill:rgb(167,163,184);stroke:black;stroke-opacity:0;stroke-width:13.21px;"/>
    </g>
    <g transform="matrix(1.50118,0.429598,-0.327024,0.950043,23136.8,-3972.75)">
        <path d="M1250.06,4248.66C1250.06,4234.15 1242.49,4222.38 1233.17,4222.38L1199.39,4222.38C1190.06,4222.38 1182.49,4234.15 1182.49,4248.66L1182.49,4522.68C1182.49,4537.18 1190.06,4548.96 1199.39,4548.96L1233.17,4548.96C1242.49,4548.96 1250.06,4537.18 1250.06,4522.68L1250.06,4248.66Z" style="fill:rgb(167,163,184);stroke:black;stroke-opacity:0;stroke-width:13.99px;"/>
    </g>
    <g transform="matrix(0.525981,-0.961506,0.994887,0.606236,19493.5,920.19)">
        <circle cx="268.444" cy="560.898" r="114.602" style="fill:url(#_Radial33);stroke:rgb(255,204,0);stroke-width:26.79px;"/>
    </g>
    <g transform="matrix(0.525981,-0.961506,0.994887,0.606236,19576.9,218.625)">
        <circle cx="268.444" cy="560.898" r="114.602" style="fill:url(#_Radial34);stroke:rgb(255,204,0);stroke-width:26.79px;"/>
    </g>
    <g transform="matrix(-0.162086,1.21625,-1.35205,-0.238781,27010.2,257.022)">
        <path d="M1250.06,4237.48C1250.06,4229.15 1242.49,4222.38 1233.17,4222.38L1199.39,4222.38C1190.06,4222.38 1182.49,4229.15 1182.49,4237.48L1182.49,4533.85C1182.49,4542.19 1190.06,4548.96 1199.39,4548.96L1233.17,4548.96C1242.49,4548.96 1250.06,4542.19 1250.06,4533.85L1250.06,4237.48Z" style="fill:rgb(167,163,184);stroke:black;stroke-opacity:0;stroke-width:14.06px;"/>
    </g>
    <g transform="matrix(-0.162086,1.21625,-1.35205,-0.238781,26997,356.382)">
        <path d="M1250.06,4237.48C1250.06,4229.15 1242.49,4222.38 1233.17,4222.38L1199.39,4222.38C1190.06,4222.38 1182.49,4229.15 1182.49,4237.48L1182.49,4533.85C1182.49,4542.19 1190.06,4548.96 1199.39,4548.96L1233.17,4548.96C1242.49,4548.96 1250.06,4542.19 1250.06,4533.85L1250.06,4237.48Z" style="fill:rgb(167,163,184);stroke:black;stroke-opacity:0;stroke-width:14.06px;"/>
    </g>
    <g transform="matrix(0.745876,1.45871,-0.825385,0.486237,23186.9,-3059.57)">
        <path d="M1250.06,4251.32C1250.06,4235.34 1242.49,4222.38 1233.17,4222.38L1199.39,4222.38C1190.06,4222.38 1182.49,4235.34 1182.49,4251.32L1182.49,4520.02C1182.49,4535.99 1190.06,4548.96 1199.39,4548.96L1233.17,4548.96C1242.49,4548.96 1250.06,4535.99 1250.06,4520.02L1250.06,4251.32Z" style="fill:rgb(167,163,184);stroke:black;stroke-opacity:0;stroke-width:13.02px;"/>
    </g>
    <g transform="matrix(-1.09143,1.13423,-0.660808,-0.748709,24743.9,2411.31)">
        <path d="M1250.06,4249.09C1250.06,4234.35 1242.49,4222.38 1233.17,4222.38L1199.39,4222.38C1190.06,4222.38 1182.49,4234.35 1182.49,4249.09L1182.49,4522.25C1182.49,4536.99 1190.06,4548.96 1199.39,4548.96L1233.17,4548.96C1242.49,4548.96 1250.06,4536.99 1250.06,4522.25L1250.06,4249.09Z" style="fill:rgb(167,163,184);stroke:black;stroke-opacity:0;stroke-width:14.12px;"/>
    </g>
    <g transform="matrix(0.697017,0.841141,-0.90864,0.733359,19969.5,1624.34)">
        <circle cx="268.444" cy="560.898" r="114.602" style="fill:url(#_Radial35);stroke:rgb(255,204,0);stroke-width:26.79px;"/>
    </g>
    <g transform="matrix(0.697017,0.841141,-0.90864,0.733359,20584.3,1951.95)">
        <circle cx="268.444" cy="560.898" r="114.602" style="fill:url(#_Radial36);stroke:rgb(255,204,0);stroke-width:26.79px;"/>
    </g>
    <g transform="matrix(-1.05968,-0.584577,0.697492,-1.20357,17920,9019.63)">
        <path d="M1250.06,4237.07C1250.06,4228.96 1242.49,4222.38 1233.17,4222.38L1199.39,4222.38C1190.06,4222.38 1182.49,4228.96 1182.49,4237.07L1182.49,4534.26C1182.49,4542.38 1190.06,4548.96 1199.39,4548.96L1233.17,4548.96C1242.49,4548.96 1250.06,4542.38 1250.06,4534.26L1250.06,4237.07Z" style="fill:rgb(167,163,184);stroke:black;stroke-opacity:0;stroke-width:13.89px;"/>
    </g>
    <g transform="matrix(-1.05968,-0.584577,0.697492,-1.20357,17833.5,8971.87)">
        <path d="M1250.06,4237.07C1250.06,4228.96 1242.49,4222.38 1233.17,4222.38L1199.39,4222.38C1190.06,4222.38 1182.49,4228.96 1182.49,4237.07L1182.49,4534.26C1182.49,4542.38 1190.06,4548.96 1199.39,4548.96L1233.17,4548.96C1242.49,4548.96 1250.06,4542.38 1250.06,4534.26L1250.06,4237.07Z" style="fill:rgb(167,163,184);stroke:black;stroke-opacity:0;stroke-width:13.89px;"/>
    </g>
    <g transform="matrix(-1.60348,0.194634,-0.154636,-0.958273,22318.2,6550.36)">
        <path d="M1250.06,4250.51C1250.06,4234.98 1242.49,4222.38 1233.17,4222.38L1199.39,4222.38C1190.06,4222.38 1182.49,4234.98 1182.49,4250.51L1182.49,4520.83C1182.49,4536.36 1190.06,4548.96 1199.39,4548.96L1233.17,4548.96C1242.49,4548.96 1250.06,4536.36 1250.06,4520.83L1250.06,4250.51Z" style="fill:rgb(167,163,184);stroke:black;stroke-opacity:0;stroke-width:13.22px;"/>
    </g>
    <g transform="matrix(-0.655658,-1.4409,0.92133,-0.36471,16743.1,6098.76)">
        <path d="M1250.06,4249.4C1250.06,4234.48 1242.49,4222.38 1233.17,4222.38L1199.39,4222.38C1190.06,4222.38 1182.49,4234.48 1182.49,4249.4L1182.49,4521.94C1182.49,4536.86 1190.06,4548.96 1199.39,4548.96L1233.17,4548.96C1242.49,4548.96 1250.06,4536.86 1250.06,4521.94L1250.06,4249.4Z" style="fill:rgb(167,163,184);stroke:black;stroke-opacity:0;stroke-width:13.88px;"/>
    </g>
    <g transform="matrix(1.1656,0,0,1.68007,14718.3,-2428.9)">
        <text x="7943.75px" y="3272.49px" style="font-family:'ArialMT', 'Arial', sans-serif;font-size:458.895px;fill:rgb(133,29,162);">*</text>
    </g>
    <g transform="matrix(0.97661,-2.26073e-17,0.00731077,1.21252,5931.75,-409.449)">
        <path d="M8584.83,3279.03L8584.83,3407.22L8339.98,3210.01L8584.83,3012.8L8584.83,3140.99L9722.11,3140.99L9722.11,3012.8L9966.96,3210.01L9722.11,3407.22L9722.11,3279.03L8584.83,3279.03Z" style="fill:rgb(16,255,0);"/>
    </g>
    <g transform="matrix(2.0843,0,0,2.52536,-2429.38,-5346.41)">
        <text x="7943.75px" y="3272.49px" style="font-family:'ArialMT', 'Arial', sans-serif;font-size:225.537px;fill:rgb(30,162,29);">K</text>
    </g>
    <g transform="matrix(2.0843,0,0,2.52536,-11402.4,-4241.95)">
        <text x="12398.1px" y="2890.37px" style="font-family:'ArialMT', 'Arial', sans-serif;font-size:124.045px;fill:rgb(30,162,29);">D</text>
    </g>
    <g transform="matrix(2.0843,0,0,2.52536,-1649.86,-5324.05)">
        <text x="7943.75px" y="3272.49px" style="font-family:'ArialMT', 'Arial', sans-serif;font-size:225.537px;fill:rgb(133,29,162);">K</text>
    </g>
    <g transform="matrix(2.0843,0,0,2.52536,-10622.9,-4219.59)">
        <text x="12398.1px" y="2890.37px" style="font-family:'ArialMT', 'Arial', sans-serif;font-size:124.045px;fill:rgb(133,29,162);">X</text>
    </g>
    <g transform="matrix(2.0843,0,0,2.52536,-11149.9,-4443.23)">
        <text x="12398.1px" y="2890.37px" style="font-family:'ArialMT', 'Arial', sans-serif;font-size:124.045px;fill:rgb(10,0,12);">x</text>
    </g>
    <g transform="matrix(1.1656,0,0,1.68007,6007.8,-2531.95)">
        <text x="7943.75px" y="3272.49px" style="font-family:'ArialMT', 'Arial', sans-serif;font-size:458.895px;fill:rgb(133,29,162);">*</text>
    </g>
    <defs>
        <radialGradient id="_Radial1" cx="0" cy="0" r="1" gradientUnits="userSpaceOnUse" gradientTransform="matrix(114.602,0,0,114.602,268.444,560.898)"><stop offset="0" style="stop-color:white;stop-opacity:1"/><stop offset="0.48" style="stop-color:rgb(86,223,172);stop-opacity:1"/><stop offset="1" style="stop-color:rgb(34,213,147);stop-opacity:1"/></radialGradient>
        <radialGradient id="_Radial2" cx="0" cy="0" r="1" gradientUnits="userSpaceOnUse" gradientTransform="matrix(114.602,0,0,114.602,268.444,560.898)"><stop offset="0" style="stop-color:white;stop-opacity:1"/><stop offset="0.48" style="stop-color:rgb(86,223,172);stop-opacity:1"/><stop offset="1" style="stop-color:rgb(34,213,147);stop-opacity:1"/></radialGradient>
        <radialGradient id="_Radial3" cx="0" cy="0" r="1" gradientUnits="userSpaceOnUse" gradientTransform="matrix(114.602,0,0,114.602,268.444,560.898)"><stop offset="0" style="stop-color:white;stop-opacity:1"/><stop offset="0.48" style="stop-color:rgb(86,223,172);stop-opacity:1"/><stop offset="1" style="stop-color:rgb(34,213,147);stop-opacity:1"/></radialGradient>
        <radialGradient id="_Radial4" cx="0" cy="0" r="1" gradientUnits="userSpaceOnUse" gradientTransform="matrix(114.602,0,0,114.602,268.444,560.898)"><stop offset="0" style="stop-color:white;stop-opacity:1"/><stop offset="0.48" style="stop-color:rgb(86,223,172);stop-opacity:1"/><stop offset="1" style="stop-color:rgb(34,213,147);stop-opacity:1"/></radialGradient>
        <radialGradient id="_Radial5" cx="0" cy="0" r="1" gradientUnits="userSpaceOnUse" gradientTransform="matrix(114.602,0,0,114.602,268.444,560.898)"><stop offset="0" style="stop-color:white;stop-opacity:1"/><stop offset="0.48" style="stop-color:rgb(86,223,172);stop-opacity:1"/><stop offset="1" style="stop-color:rgb(34,213,147);stop-opacity:1"/></radialGradient>
        <radialGradient id="_Radial6" cx="0" cy="0" r="1" gradientUnits="userSpaceOnUse" gradientTransform="matrix(114.602,0,0,114.602,268.444,560.898)"><stop offset="0" style="stop-color:white;stop-opacity:1"/><stop offset="0.48" style="stop-color:rgb(86,223,172);stop-opacity:1"/><stop offset="1" style="stop-color:rgb(34,213,147);stop-opacity:1"/></radialGradient>
        <radialGradient id="_Radial7" cx="0" cy="0" r="1" gradientUnits="userSpaceOnUse" gradientTransform="matrix(114.602,0,0,114.602,268.444,560.898)"><stop offset="0" style="stop-color:white;stop-opacity:1"/><stop offset="0.48" style="stop-color:rgb(86,223,172);stop-opacity:1"/><stop offset="1" style="stop-color:rgb(34,213,147);stop-opacity:1"/></radialGradient>
        <radialGradient id="_Radial8" cx="0" cy="0" r="1" gradientUnits="userSpaceOnUse" gradientTransform="matrix(114.602,0,0,114.602,268.444,560.898)"><stop offset="0" style="stop-color:white;stop-opacity:1"/><stop offset="0.48" style="stop-color:rgb(86,223,172);stop-opacity:1"/><stop offset="1" style="stop-color:rgb(34,213,147);stop-opacity:1"/></radialGradient>
        <radialGradient id="_Radial9" cx="0" cy="0" r="1" gradientUnits="userSpaceOnUse" gradientTransform="matrix(114.602,0,0,114.602,268.444,560.898)"><stop offset="0" style="stop-color:white;stop-opacity:1"/><stop offset="0.48" style="stop-color:rgb(86,223,172);stop-opacity:1"/><stop offset="1" style="stop-color:rgb(34,213,147);stop-opacity:1"/></radialGradient>
        <radialGradient id="_Radial10" cx="0" cy="0" r="1" gradientUnits="userSpaceOnUse" gradientTransform="matrix(114.602,0,0,114.602,268.444,560.898)"><stop offset="0" style="stop-color:white;stop-opacity:1"/><stop offset="0.48" style="stop-color:rgb(86,223,172);stop-opacity:1"/><stop offset="1" style="stop-color:rgb(34,213,147);stop-opacity:1"/></radialGradient>
        <radialGradient id="_Radial11" cx="0" cy="0" r="1" gradientUnits="userSpaceOnUse" gradientTransform="matrix(114.602,0,0,114.602,268.444,560.898)"><stop offset="0" style="stop-color:white;stop-opacity:1"/><stop offset="0.48" style="stop-color:rgb(86,223,172);stop-opacity:1"/><stop offset="1" style="stop-color:rgb(34,213,147);stop-opacity:1"/></radialGradient>
        <radialGradient id="_Radial13" cx="0" cy="0" r="1" gradientUnits="userSpaceOnUse" gradientTransform="matrix(114.602,0,0,114.602,268.444,560.898)"><stop offset="0" style="stop-color:white;stop-opacity:1"/><stop offset="0.48" style="stop-color:rgb(86,223,172);stop-opacity:1"/><stop offset="1" style="stop-color:rgb(34,213,147);stop-opacity:1"/></radialGradient>
        <radialGradient id="_Radial14" cx="0" cy="0" r="1" gradientUnits="userSpaceOnUse" gradientTransform="matrix(114.602,0,0,114.602,268.444,560.898)"><stop offset="0" style="stop-color:white;stop-opacity:1"/><stop offset="0.48" style="stop-color:rgb(86,223,172);stop-opacity:1"/><stop offset="1" style="stop-color:rgb(34,213,147);stop-opacity:1"/></radialGradient>
        <radialGradient id="_Radial15" cx="0" cy="0" r="1" gradientUnits="userSpaceOnUse" gradientTransform="matrix(114.602,0,0,114.602,268.444,560.898)"><stop offset="0" style="stop-color:white;stop-opacity:1"/><stop offset="0.48" style="stop-color:rgb(86,223,172);stop-opacity:1"/><stop offset="1" style="stop-color:rgb(34,213,147);stop-opacity:1"/></radialGradient>
        <radialGradient id="_Radial16" cx="0" cy="0" r="1" gradientUnits="userSpaceOnUse" gradientTransform="matrix(114.602,0,0,114.602,268.444,560.898)"><stop offset="0" style="stop-color:white;stop-opacity:1"/><stop offset="0.48" style="stop-color:rgb(86,223,172);stop-opacity:1"/><stop offset="1" style="stop-color:rgb(34,213,147);stop-opacity:1"/></radialGradient>
        <radialGradient id="_Radial17" cx="0" cy="0" r="1" gradientUnits="userSpaceOnUse" gradientTransform="matrix(114.602,0,0,114.602,268.444,560.898)"><stop offset="0" style="stop-color:white;stop-opacity:1"/><stop offset="0.48" style="stop-color:rgb(86,223,172);stop-opacity:1"/><stop offset="1" style="stop-color:rgb(34,213,147);stop-opacity:1"/></radialGradient>
        <radialGradient id="_Radial18" cx="0" cy="0" r="1" gradientUnits="userSpaceOnUse" gradientTransform="matrix(114.602,0,0,114.602,268.444,560.898)"><stop offset="0" style="stop-color:white;stop-opacity:1"/><stop offset="0.48" style="stop-color:rgb(86,223,172);stop-opacity:1"/><stop offset="1" style="stop-color:rgb(34,213,147);stop-opacity:1"/></radialGradient>
        <radialGradient id="_Radial19" cx="0" cy="0" r="1" gradientUnits="userSpaceOnUse" gradientTransform="matrix(114.602,0,0,114.602,268.444,560.898)"><stop offset="0" style="stop-color:white;stop-opacity:1"/><stop offset="0.48" style="stop-color:rgb(86,223,172);stop-opacity:1"/><stop offset="1" style="stop-color:rgb(34,213,147);stop-opacity:1"/></radialGradient>
        <radialGradient id="_Radial20" cx="0" cy="0" r="1" gradientUnits="userSpaceOnUse" gradientTransform="matrix(114.602,0,0,114.602,268.444,560.898)"><stop offset="0" style="stop-color:white;stop-opacity:1"/><stop offset="0.48" style="stop-color:rgb(86,223,172);stop-opacity:1"/><stop offset="1" style="stop-color:rgb(34,213,147);stop-opacity:1"/></radialGradient>
        <radialGradient id="_Radial21" cx="0" cy="0" r="1" gradientUnits="userSpaceOnUse" gradientTransform="matrix(114.602,0,0,114.602,268.444,560.898)"><stop offset="0" style="stop-color:white;stop-opacity:1"/><stop offset="0.48" style="stop-color:rgb(86,223,172);stop-opacity:1"/><stop offset="1" style="stop-color:rgb(34,213,147);stop-opacity:1"/></radialGradient>
        <radialGradient id="_Radial22" cx="0" cy="0" r="1" gradientUnits="userSpaceOnUse" gradientTransform="matrix(114.602,0,0,114.602,268.444,560.898)"><stop offset="0" style="stop-color:white;stop-opacity:1"/><stop offset="0.48" style="stop-color:rgb(86,223,172);stop-opacity:1"/><stop offset="1" style="stop-color:rgb(34,213,147);stop-opacity:1"/></radialGradient>
        <radialGradient id="_Radial23" cx="0" cy="0" r="1" gradientUnits="userSpaceOnUse" gradientTransform="matrix(114.602,0,0,114.602,268.444,560.898)"><stop offset="0" style="stop-color:white;stop-opacity:1"/><stop offset="0.48" style="stop-color:rgb(86,223,172);stop-opacity:1"/><stop offset="1" style="stop-color:rgb(34,213,147);stop-opacity:1"/></radialGradient>
        <radialGradient id="_Radial24" cx="0" cy="0" r="1" gradientUnits="userSpaceOnUse" gradientTransform="matrix(114.602,0,0,114.602,268.444,560.898)"><stop offset="0" style="stop-color:white;stop-opacity:1"/><stop offset="0.48" style="stop-color:rgb(86,223,172);stop-opacity:1"/><stop offset="1" style="stop-color:rgb(34,213,147);stop-opacity:1"/></radialGradient>
        <radialGradient id="_Radial25" cx="0" cy="0" r="1" gradientUnits="userSpaceOnUse" gradientTransform="matrix(114.602,0,0,114.602,268.444,560.898)"><stop offset="0" style="stop-color:white;stop-opacity:1"/><stop offset="0.48" style="stop-color:rgb(86,223,172);stop-opacity:1"/><stop offset="1" style="stop-color:rgb(34,213,147);stop-opacity:1"/></radialGradient>
        <radialGradient id="_Radial26" cx="0" cy="0" r="1" gradientUnits="userSpaceOnUse" gradientTransform="matrix(114.602,0,0,114.602,268.444,560.898)"><stop offset="0" style="stop-color:white;stop-opacity:1"/><stop offset="0.48" style="stop-color:rgb(86,223,172);stop-opacity:1"/><stop offset="1" style="stop-color:rgb(34,213,147);stop-opacity:1"/></radialGradient>
        <radialGradient id="_Radial27" cx="0" cy="0" r="1" gradientUnits="userSpaceOnUse" gradientTransform="matrix(114.602,0,0,114.602,268.444,560.898)"><stop offset="0" style="stop-color:white;stop-opacity:1"/><stop offset="0.48" style="stop-color:rgb(86,223,172);stop-opacity:1"/><stop offset="1" style="stop-color:rgb(34,213,147);stop-opacity:1"/></radialGradient>
        <radialGradient id="_Radial28" cx="0" cy="0" r="1" gradientUnits="userSpaceOnUse" gradientTransform="matrix(114.602,0,0,114.602,268.444,560.898)"><stop offset="0" style="stop-color:white;stop-opacity:1"/><stop offset="0.48" style="stop-color:rgb(86,223,172);stop-opacity:1"/><stop offset="1" style="stop-color:rgb(34,213,147);stop-opacity:1"/></radialGradient>
        <radialGradient id="_Radial29" cx="0" cy="0" r="1" gradientUnits="userSpaceOnUse" gradientTransform="matrix(114.602,0,0,114.602,268.444,560.898)"><stop offset="0" style="stop-color:white;stop-opacity:1"/><stop offset="0.48" style="stop-color:rgb(86,223,172);stop-opacity:1"/><stop offset="1" style="stop-color:rgb(34,213,147);stop-opacity:1"/></radialGradient>
        <radialGradient id="_Radial30" cx="0" cy="0" r="1" gradientUnits="userSpaceOnUse" gradientTransform="matrix(114.602,0,0,114.602,268.444,560.898)"><stop offset="0" style="stop-color:white;stop-opacity:1"/><stop offset="0.48" style="stop-color:rgb(86,223,172);stop-opacity:1"/><stop offset="1" style="stop-color:rgb(34,213,147);stop-opacity:1"/></radialGradient>
        <radialGradient id="_Radial31" cx="0" cy="0" r="1" gradientUnits="userSpaceOnUse" gradientTransform="matrix(114.602,0,0,114.602,268.444,560.898)"><stop offset="0" style="stop-color:white;stop-opacity:1"/><stop offset="0.48" style="stop-color:rgb(86,223,172);stop-opacity:1"/><stop offset="1" style="stop-color:rgb(34,213,147);stop-opacity:1"/></radialGradient>
        <radialGradient id="_Radial32" cx="0" cy="0" r="1" gradientUnits="userSpaceOnUse" gradientTransform="matrix(114.602,0,0,114.602,268.444,560.898)"><stop offset="0" style="stop-color:white;stop-opacity:1"/><stop offset="0.48" style="stop-color:rgb(86,223,172);stop-opacity:1"/><stop offset="1" style="stop-color:rgb(34,213,147);stop-opacity:1"/></radialGradient>
        <radialGradient id="_Radial33" cx="0" cy="0" r="1" gradientUnits="userSpaceOnUse" gradientTransform="matrix(114.602,0,0,114.602,268.444,560.898)"><stop offset="0" style="stop-color:white;stop-opacity:1"/><stop offset="0.48" style="stop-color:rgb(86,223,172);stop-opacity:1"/><stop offset="1" style="stop-color:rgb(34,213,147);stop-opacity:1"/></radialGradient>
        <radialGradient id="_Radial34" cx="0" cy="0" r="1" gradientUnits="userSpaceOnUse" gradientTransform="matrix(114.602,0,0,114.602,268.444,560.898)"><stop offset="0" style="stop-color:white;stop-opacity:1"/><stop offset="0.48" style="stop-color:rgb(86,223,172);stop-opacity:1"/><stop offset="1" style="stop-color:rgb(34,213,147);stop-opacity:1"/></radialGradient>
        <radialGradient id="_Radial35" cx="0" cy="0" r="1" gradientUnits="userSpaceOnUse" gradientTransform="matrix(114.602,0,0,114.602,268.444,560.898)"><stop offset="0" style="stop-color:white;stop-opacity:1"/><stop offset="0.48" style="stop-color:rgb(86,223,172);stop-opacity:1"/><stop offset="1" style="stop-color:rgb(34,213,147);stop-opacity:1"/></radialGradient>
        <radialGradient id="_Radial36" cx="0" cy="0" r="1" gradientUnits="userSpaceOnUse" gradientTransform="matrix(114.602,0,0,114.602,268.444,560.898)"><stop offset="0" style="stop-color:white;stop-opacity:1"/><stop offset="0.48" style="stop-color:rgb(86,223,172);stop-opacity:1"/><stop offset="1" style="stop-color:rgb(34,213,147);stop-opacity:1"/></radialGradient>
    </defs>
</svg>
