<?xml version="1.0" encoding="UTF-8" standalone="no"?>
<!DOCTYPE svg PUBLIC "-//W3C//DTD SVG 1.1//EN" "http://www.w3.org/Graphics/SVG/1.1/DTD/svg11.dtd">
<svg width="100%" height="100%" viewBox="0 0 21260 5315" version="1.1" xmlns="http://www.w3.org/2000/svg" xmlns:xlink="http://www.w3.org/1999/xlink" xml:space="preserve" xmlns:serif="http://www.serif.com/" style="fill-rule:evenodd;clip-rule:evenodd;stroke-linecap:round;stroke-linejoin:round;stroke-miterlimit:1.5;">
    <g transform="matrix(5.9182,-0.00809264,0.000932833,0.571177,-40160.8,3564.19)">
        <path d="M10372.6,2746.08C10141.7,2382.28 9413.93,2132.07 8586.82,2132.07C7759.71,2132.07 7031.99,2382.28 6800.99,2746.08L10372.6,2746.08Z" style="fill:rgb(235,235,235);"/>
    </g>
    <g transform="matrix(4.04908,-1.03348e-16,0.0921157,4.27398,25.5561,2179.99)">
        <path d="M236.291,596.012C198.051,591.723 168.284,559.244 168.284,519.867C168.284,492.969 182.388,468.04 205.445,454.187L215.22,470.455C197.874,480.877 187.264,499.631 187.264,519.867C187.264,551.682 213.094,577.513 244.909,577.513C276.725,577.513 302.555,551.682 302.555,519.867C302.555,499.272 291.568,480.242 273.732,469.945L283.222,453.508C306.93,467.196 321.534,492.492 321.534,519.867C321.534,559.244 291.768,591.723 253.528,596.012L253.528,661.305L236.291,661.305L236.291,596.012Z" style="fill:rgb(0,157,99);"/>
    </g>
    <g transform="matrix(4.04908,-1.03348e-16,0.0921157,4.27398,1178.37,2179.99)">
        <path d="M236.291,596.012C198.051,591.723 168.284,559.244 168.284,519.867C168.284,492.969 182.388,468.04 205.445,454.187L215.22,470.455C197.874,480.877 187.264,499.631 187.264,519.867C187.264,551.682 213.094,577.513 244.909,577.513C276.725,577.513 302.555,551.682 302.555,519.867C302.555,499.272 291.568,480.242 273.732,469.945L283.222,453.508C306.93,467.196 321.534,492.492 321.534,519.867C321.534,559.244 291.768,591.723 253.528,596.012L253.528,661.305L236.291,661.305L236.291,596.012Z" style="fill:rgb(0,157,99);"/>
    </g>
    <g transform="matrix(4.04908,-1.03348e-16,0.0921157,4.27398,2262.57,2166.02)">
        <path d="M236.291,596.012C198.051,591.723 168.284,559.244 168.284,519.867C168.284,492.969 182.388,468.04 205.445,454.187L215.22,470.455C197.874,480.877 187.264,499.631 187.264,519.867C187.264,551.682 213.094,577.513 244.909,577.513C276.725,577.513 302.555,551.682 302.555,519.867C302.555,499.272 291.568,480.242 273.732,469.945L283.222,453.508C306.93,467.196 321.534,492.492 321.534,519.867C321.534,559.244 291.768,591.723 253.528,596.012L253.528,661.305L236.291,661.305L236.291,596.012Z" style="fill:rgb(0,157,99);"/>
    </g>
    <g transform="matrix(4.04908,-1.03348e-16,0.0921157,4.27398,3319.32,2179.99)">
        <path d="M236.291,596.012C198.051,591.723 168.284,559.244 168.284,519.867C168.284,492.969 182.388,468.04 205.445,454.187L215.22,470.455C197.874,480.877 187.264,499.631 187.264,519.867C187.264,551.682 213.094,577.513 244.909,577.513C276.725,577.513 302.555,551.682 302.555,519.867C302.555,499.272 291.568,480.242 273.732,469.945L283.222,453.508C306.93,467.196 321.534,492.492 321.534,519.867C321.534,559.244 291.768,591.723 253.528,596.012L253.528,661.305L236.291,661.305L236.291,596.012Z" style="fill:rgb(0,157,99);"/>
    </g>
    <g transform="matrix(4.04908,-1.03348e-16,0.0921157,4.27398,4403.52,2179.99)">
        <path d="M236.291,596.012C198.051,591.723 168.284,559.244 168.284,519.867C168.284,492.969 182.388,468.04 205.445,454.187L215.22,470.455C197.874,480.877 187.264,499.631 187.264,519.867C187.264,551.682 213.094,577.513 244.909,577.513C276.725,577.513 302.555,551.682 302.555,519.867C302.555,499.272 291.568,480.242 273.732,469.945L283.222,453.508C306.93,467.196 321.534,492.492 321.534,519.867C321.534,559.244 291.768,591.723 253.528,596.012L253.528,661.305L236.291,661.305L236.291,596.012Z" style="fill:rgb(0,157,99);"/>
    </g>
    <g transform="matrix(-1.19503,-0.497312,0.438508,-1.20836,1011.81,3388.33)">
        <circle cx="268.444" cy="560.898" r="114.602" style="fill:url(#_Radial1);stroke:rgb(255,204,0);stroke-width:26.79px;"/>
    </g>
    <g transform="matrix(-1.19503,-0.497312,0.438508,-1.20836,1140.67,5220.23)">
        <circle cx="268.444" cy="560.898" r="114.602" style="fill:url(#_Radial2);stroke:rgb(255,204,0);stroke-width:26.79px;"/>
    </g>
    <g transform="matrix(-1.19503,-0.497312,0.438508,-1.20836,3674.27,2326.03)">
        <circle cx="268.444" cy="560.898" r="114.602" style="fill:url(#_Radial3);stroke:rgb(255,204,0);stroke-width:26.79px;"/>
    </g>
    <g transform="matrix(-1.19503,-0.497312,0.438508,-1.20836,5828.94,3611.97)">
        <circle cx="268.444" cy="560.898" r="114.602" style="fill:url(#_Radial4);stroke:rgb(255,204,0);stroke-width:26.79px;"/>
    </g>
    <g transform="matrix(-1.19503,-0.497312,0.438508,-1.20836,6117.15,2409.9)">
        <circle cx="268.444" cy="560.898" r="114.602" style="fill:url(#_Radial5);stroke:rgb(255,204,0);stroke-width:26.79px;"/>
    </g>
    <g transform="matrix(-1.19503,-0.497312,0.438508,-1.20836,4895.71,1463.79)">
        <circle cx="268.444" cy="560.898" r="114.602" style="fill:url(#_Radial6);stroke:rgb(255,204,0);stroke-width:26.79px;"/>
    </g>
    <g transform="matrix(-1.19503,-0.497312,0.438508,-1.20836,1025.53,1701.41)">
        <circle cx="268.444" cy="560.898" r="114.602" style="fill:url(#_Radial7);stroke:rgb(255,204,0);stroke-width:26.79px;"/>
    </g>
    <g transform="matrix(-1.19503,-0.497312,0.438508,-1.20836,3358.62,3486.17)">
        <circle cx="268.444" cy="560.898" r="114.602" style="fill:url(#_Radial8);stroke:rgb(255,204,0);stroke-width:26.79px;"/>
    </g>
    <g transform="matrix(-1.19503,-0.497312,0.438508,-1.20836,3386.07,5205.41)">
        <circle cx="268.444" cy="560.898" r="114.602" style="fill:url(#_Radial9);stroke:rgb(255,204,0);stroke-width:26.79px;"/>
    </g>
    <g transform="matrix(4.04908,-1.03348e-16,0.0921157,4.27398,15327.6,2104.82)">
        <path d="M236.291,596.012C198.051,591.723 168.284,559.244 168.284,519.867C168.284,492.969 182.388,468.04 205.445,454.187L215.22,470.455C197.874,480.877 187.264,499.631 187.264,519.867C187.264,551.682 213.094,577.513 244.909,577.513C276.725,577.513 302.555,551.682 302.555,519.867C302.555,499.272 291.568,480.242 273.732,469.945L283.222,453.508C306.93,467.196 321.534,492.492 321.534,519.867C321.534,559.244 291.768,591.723 253.528,596.012L253.528,661.305L236.291,661.305L236.291,596.012Z" style="fill:rgb(0,157,99);"/>
    </g>
    <g transform="matrix(4.04908,-1.03348e-16,0.0921157,4.27398,16480.5,2104.82)">
        <path d="M236.291,596.012C198.051,591.723 168.284,559.244 168.284,519.867C168.284,492.969 182.388,468.04 205.445,454.187L215.22,470.455C197.874,480.877 187.264,499.631 187.264,519.867C187.264,551.682 213.094,577.513 244.909,577.513C276.725,577.513 302.555,551.682 302.555,519.867C302.555,499.272 291.568,480.242 273.732,469.945L283.222,453.508C306.93,467.196 321.534,492.492 321.534,519.867C321.534,559.244 291.768,591.723 253.528,596.012L253.528,661.305L236.291,661.305L236.291,596.012Z" style="fill:rgb(0,157,99);"/>
    </g>
    <g transform="matrix(4.04908,-1.03348e-16,0.0921157,4.27398,14243.4,2104.82)">
        <path d="M236.291,596.012C198.051,591.723 168.284,559.244 168.284,519.867C168.284,492.969 182.388,468.04 205.445,454.187L215.22,470.455C197.874,480.877 187.264,499.631 187.264,519.867C187.264,551.682 213.094,577.513 244.909,577.513C276.725,577.513 302.555,551.682 302.555,519.867C302.555,499.272 291.568,480.242 273.732,469.945L283.222,453.508C306.93,467.196 321.534,492.492 321.534,519.867C321.534,559.244 291.768,591.723 253.528,596.012L253.528,661.305L236.291,661.305L236.291,596.012Z" style="fill:rgb(0,157,99);"/>
    </g>
    <g transform="matrix(4.04908,-1.03348e-16,0.0921157,4.27398,11636.5,2045.01)">
        <path d="M236.291,596.012C198.051,591.723 168.284,559.244 168.284,519.867C168.284,492.969 182.388,468.04 205.445,454.187L215.22,470.455C197.874,480.877 187.264,499.631 187.264,519.867C187.264,551.682 213.094,577.513 244.909,577.513C276.725,577.513 302.555,551.682 302.555,519.867C302.555,499.272 291.568,480.242 273.732,469.945L283.222,453.508C306.93,467.196 321.534,492.492 321.534,519.867C321.534,559.244 291.768,591.723 253.528,596.012L253.528,661.305L236.291,661.305L236.291,596.012Z" style="fill:rgb(0,157,99);"/>
    </g>
    <g transform="matrix(4.04908,-1.03348e-16,0.0921157,4.27398,17500.3,2090.84)">
        <path d="M236.291,596.012C198.051,591.723 168.284,559.244 168.284,519.867C168.284,492.969 182.388,468.04 205.445,454.187L215.22,470.455C197.874,480.877 187.264,499.631 187.264,519.867C187.264,551.682 213.094,577.513 244.909,577.513C276.725,577.513 302.555,551.682 302.555,519.867C302.555,499.272 291.568,480.242 273.732,469.945L283.222,453.508C306.93,467.196 321.534,492.492 321.534,519.867C321.534,559.244 291.768,591.723 253.528,596.012L253.528,661.305L236.291,661.305L236.291,596.012Z" style="fill:rgb(0,157,99);"/>
    </g>
    <g transform="matrix(4.04908,-1.03348e-16,0.0921157,4.27398,18449.8,2104.82)">
        <path d="M236.291,596.012C198.051,591.723 168.284,559.244 168.284,519.867C168.284,492.969 182.388,468.04 205.445,454.187L215.22,470.455C197.874,480.877 187.264,499.631 187.264,519.867C187.264,551.682 213.094,577.513 244.909,577.513C276.725,577.513 302.555,551.682 302.555,519.867C302.555,499.272 291.568,480.242 273.732,469.945L283.222,453.508C306.93,467.196 321.534,492.492 321.534,519.867C321.534,559.244 291.768,591.723 253.528,596.012L253.528,661.305L236.291,661.305L236.291,596.012Z" style="fill:rgb(0,157,99);"/>
    </g>
    <g transform="matrix(4.04908,-1.03348e-16,0.0921157,4.27398,19193.7,2116)">
        <path d="M236.291,596.012C198.051,591.723 168.284,559.244 168.284,519.867C168.284,492.969 182.388,468.04 205.445,454.187L215.22,470.455C197.874,480.877 187.264,499.631 187.264,519.867C187.264,551.682 213.094,577.513 244.909,577.513C276.725,577.513 302.555,551.682 302.555,519.867C302.555,499.272 291.568,480.242 273.732,469.945L283.222,453.508C306.93,467.196 321.534,492.492 321.534,519.867C321.534,559.244 291.768,591.723 253.528,596.012L253.528,661.305L236.291,661.305L236.291,596.012Z" style="fill:rgb(0,157,99);"/>
    </g>
    <g transform="matrix(-1.19503,-0.497312,0.438508,-1.20836,16442.7,5145.06)">
        <circle cx="268.444" cy="560.898" r="114.602" style="fill:url(#_Radial10);stroke:rgb(255,204,0);stroke-width:26.79px;"/>
    </g>
    <g transform="matrix(-1.19503,-0.497312,0.438508,-1.20836,1945.04,2507.74)">
        <circle cx="268.444" cy="560.898" r="114.602" style="fill:url(#_Radial11);stroke:rgb(255,204,0);stroke-width:26.79px;"/>
    </g>
    <g transform="matrix(1.48446e-17,-0.644135,1.19052,-0.00744582,-516.065,9433)">
        <path d="M8704.47,3279.03L8704.47,3407.22L8339.98,3210.01L8704.47,3012.8L8704.47,3140.99L9602.47,3140.99L9602.47,3012.8L9966.96,3210.01L9602.47,3407.22L9602.47,3279.03L8704.47,3279.03Z" style="fill:rgb(16,255,0);"/>
    </g>
    <g transform="matrix(2.0843,0,0,2.52536,-14086.6,-4663.44)">
        <text x="7943.75px" y="3272.49px" style="font-family:'ArialMT', 'Arial', sans-serif;font-size:225.537px;fill:rgb(30,162,29);">K</text>
    </g>
    <g transform="matrix(2.0843,0,0,2.52536,-23059.6,-3558.98)">
        <text x="12398.1px" y="2890.37px" style="font-family:'ArialMT', 'Arial', sans-serif;font-size:124.045px;fill:rgb(30,162,29);">D</text>
    </g>
    <g transform="matrix(4.04908,-1.03348e-16,0.0921157,4.27398,7232.44,2037.9)">
        <path d="M236.291,596.012C198.051,591.723 168.284,559.244 168.284,519.867C168.284,492.969 182.388,468.04 205.445,454.187L215.22,470.455C197.874,480.877 187.264,499.631 187.264,519.867C187.264,551.682 213.094,577.513 244.909,577.513C276.725,577.513 302.555,551.682 302.555,519.867C302.555,499.272 291.568,480.242 273.732,469.945L283.222,453.508C306.93,467.196 321.534,492.492 321.534,519.867C321.534,559.244 291.768,591.723 253.528,596.012L253.528,661.305L236.291,661.305L236.291,596.012Z" style="fill:rgb(19,3,242);"/>
    </g>
    <g transform="matrix(4.04908,-1.03348e-16,0.0921157,4.27398,8385.26,2037.9)">
        <path d="M236.291,596.012C198.051,591.723 168.284,559.244 168.284,519.867C168.284,492.969 182.388,468.04 205.445,454.187L215.22,470.455C197.874,480.877 187.264,499.631 187.264,519.867C187.264,551.682 213.094,577.513 244.909,577.513C276.725,577.513 302.555,551.682 302.555,519.867C302.555,499.272 291.568,480.242 273.732,469.945L283.222,453.508C306.93,467.196 321.534,492.492 321.534,519.867C321.534,559.244 291.768,591.723 253.528,596.012L253.528,661.305L236.291,661.305L236.291,596.012Z" style="fill:rgb(13,14,240);"/>
    </g>
    <g transform="matrix(4.04908,-1.03348e-16,0.0921157,4.27398,9469.45,2023.92)">
        <path d="M236.291,596.012C198.051,591.723 168.284,559.244 168.284,519.867C168.284,492.969 182.388,468.04 205.445,454.187L215.22,470.455C197.874,480.877 187.264,499.631 187.264,519.867C187.264,551.682 213.094,577.513 244.909,577.513C276.725,577.513 302.555,551.682 302.555,519.867C302.555,499.272 291.568,480.242 273.732,469.945L283.222,453.508C306.93,467.196 321.534,492.492 321.534,519.867C321.534,559.244 291.768,591.723 253.528,596.012L253.528,661.305L236.291,661.305L236.291,596.012Z" style="fill:rgb(48,8,248);"/>
    </g>
    <g transform="matrix(4.04908,-1.03348e-16,0.0921157,4.27398,10526.2,2037.9)">
        <path d="M236.291,596.012C198.051,591.723 168.284,559.244 168.284,519.867C168.284,492.969 182.388,468.04 205.445,454.187L215.22,470.455C197.874,480.877 187.264,499.631 187.264,519.867C187.264,551.682 213.094,577.513 244.909,577.513C276.725,577.513 302.555,551.682 302.555,519.867C302.555,499.272 291.568,480.242 273.732,469.945L283.222,453.508C306.93,467.196 321.534,492.492 321.534,519.867C321.534,559.244 291.768,591.723 253.528,596.012L253.528,661.305L236.291,661.305L236.291,596.012Z" style="fill:rgb(53,139,53);"/>
    </g>
    <g transform="matrix(4.04908,-1.03348e-16,0.0921157,4.27398,11632,2045.43)">
        <clipPath id="_clip12">
            <rect x="245.668" y="453.508" width="75.866" height="207.797"/>
        </clipPath>
        <g clip-path="url(#_clip12)">
            <path d="M236.291,596.012C198.051,591.723 168.284,559.244 168.284,519.867C168.284,492.969 182.388,468.04 205.445,454.187L215.22,470.455C197.874,480.877 187.264,499.631 187.264,519.867C187.264,551.682 213.094,577.513 244.909,577.513C276.725,577.513 302.555,551.682 302.555,519.867C302.555,499.272 291.568,480.242 273.732,469.945L283.222,453.508C306.93,467.196 321.534,492.492 321.534,519.867C321.534,559.244 291.768,591.723 253.528,596.012L253.528,661.305L236.291,661.305L236.291,596.012Z" style="fill:rgb(3,0,255);"/>
        </g>
    </g>
    <g transform="matrix(-1.19503,-0.497312,0.438508,-1.20836,8862.59,3382.58)">
        <circle cx="268.444" cy="560.898" r="114.602" style="fill:url(#_Radial13);stroke:rgb(255,204,0);stroke-width:26.79px;"/>
    </g>
    <g transform="matrix(-1.19503,-0.497312,0.438508,-1.20836,7904.9,3537.25)">
        <circle cx="268.444" cy="560.898" r="114.602" style="fill:url(#_Radial14);stroke:rgb(255,204,0);stroke-width:26.79px;"/>
    </g>
    <g transform="matrix(-1.19503,-0.497312,0.438508,-1.20836,10881.2,2183.94)">
        <circle cx="268.444" cy="560.898" r="114.602" style="fill:url(#_Radial15);stroke:rgb(255,204,0);stroke-width:26.79px;"/>
    </g>
    <g transform="matrix(-1.19503,-0.497312,0.438508,-1.20836,13035.8,3469.87)">
        <circle cx="268.444" cy="560.898" r="114.602" style="fill:url(#_Radial16);stroke:rgb(255,204,0);stroke-width:26.79px;"/>
    </g>
    <g transform="matrix(-1.19503,-0.497312,0.438508,-1.20836,12607.5,2170.72)">
        <circle cx="268.444" cy="560.898" r="114.602" style="fill:url(#_Radial17);stroke:rgb(255,204,0);stroke-width:26.79px;"/>
    </g>
    <g transform="matrix(-1.19503,-0.497312,0.438508,-1.20836,12102.6,1321.69)">
        <circle cx="268.444" cy="560.898" r="114.602" style="fill:url(#_Radial18);stroke:rgb(255,204,0);stroke-width:26.79px;"/>
    </g>
    <g transform="matrix(-1.19503,-0.497312,0.438508,-1.20836,8232.41,1559.31)">
        <circle cx="268.444" cy="560.898" r="114.602" style="fill:url(#_Radial19);stroke:rgb(255,204,0);stroke-width:26.79px;"/>
    </g>
    <g transform="matrix(-1.19503,-0.497312,0.438508,-1.20836,10565.5,3344.07)">
        <circle cx="268.444" cy="560.898" r="114.602" style="fill:url(#_Radial20);stroke:rgb(255,204,0);stroke-width:26.79px;"/>
    </g>
    <g transform="matrix(-1.19503,-0.497312,0.438508,-1.20836,10597.8,5083.03)">
        <circle cx="268.444" cy="560.898" r="114.602" style="fill:url(#_Radial21);stroke:rgb(255,204,0);stroke-width:26.79px;"/>
    </g>
    <g transform="matrix(-1.19503,-0.497312,0.438508,-1.20836,12744.4,5081.04)">
        <circle cx="268.444" cy="560.898" r="114.602" style="fill:url(#_Radial22);stroke:rgb(255,204,0);stroke-width:26.79px;"/>
    </g>
    <g transform="matrix(-1.19503,-0.497312,0.438508,-1.20836,9151.92,2365.64)">
        <circle cx="268.444" cy="560.898" r="114.602" style="fill:url(#_Radial23);stroke:rgb(255,204,0);stroke-width:26.79px;"/>
    </g>
    <g transform="matrix(1.48446e-17,-0.644135,1.19052,-0.00744582,6690.82,9290.9)">
        <path d="M8704.47,3279.03L8704.47,3407.22L8339.98,3210.01L8704.47,3012.8L8704.47,3140.99L9602.47,3140.99L9602.47,3012.8L9966.96,3210.01L9602.47,3407.22L9602.47,3279.03L8704.47,3279.03Z" style="fill:rgb(16,255,0);"/>
    </g>
    <g transform="matrix(2.0843,0,0,2.52536,-6898.37,-4867.34)">
        <text x="7943.75px" y="3272.49px" style="font-family:'ArialMT', 'Arial', sans-serif;font-size:225.537px;fill:rgb(9,5,247);">K</text>
    </g>
    <g transform="matrix(2.0843,0,0,2.52536,-15871.4,-3762.88)">
        <text x="12398.1px" y="2890.37px" style="font-family:'ArialMT', 'Arial', sans-serif;font-size:124.045px;fill:rgb(9,5,247);">D</text>
    </g>
    <g transform="matrix(1.48446e-17,-0.644135,1.19052,-0.00744582,12533.9,8795.92)">
        <path d="M8704.47,3279.03L8704.47,3407.22L8339.98,3210.01L8704.47,3012.8L8704.47,3140.99L9602.47,3140.99L9602.47,3012.8L9966.96,3210.01L9602.47,3407.22L9602.47,3279.03L8704.47,3279.03Z" style="fill:rgb(16,255,0);"/>
    </g>
    <g transform="matrix(0.97661,-2.26073e-17,0.00731077,1.21252,9245.85,-285.276)">
        <path d="M8584.83,3279.03L8584.83,3407.22L8339.98,3210.01L8584.83,3012.8L8584.83,3140.99L9722.11,3140.99L9722.11,3012.8L9966.96,3210.01L9722.11,3407.22L9722.11,3279.03L8584.83,3279.03Z" style="fill:rgb(16,255,0);"/>
    </g>
    <g transform="matrix(2.0843,0,0,2.52536,-981.744,-5322.88)">
        <text x="7943.75px" y="3272.49px" style="font-family:'ArialMT', 'Arial', sans-serif;font-size:225.537px;fill:rgb(30,162,29);">K</text>
    </g>
    <g transform="matrix(2.0843,0,0,2.52536,-9954.76,-4218.42)">
        <text x="12398.1px" y="2890.37px" style="font-family:'ArialMT', 'Arial', sans-serif;font-size:124.045px;fill:rgb(30,162,29);">D</text>
    </g>
    <g transform="matrix(2.0843,0,0,2.52536,884.724,-5222.24)">
        <text x="7943.75px" y="3272.49px" style="font-family:'ArialMT', 'Arial', sans-serif;font-size:225.537px;fill:rgb(30,162,29);">K</text>
    </g>
    <g transform="matrix(2.0843,0,0,2.52536,-8088.3,-4117.78)">
        <text x="12398.1px" y="2890.37px" style="font-family:'ArialMT', 'Arial', sans-serif;font-size:124.045px;fill:rgb(30,162,29);">D</text>
    </g>
    <g transform="matrix(2.0843,0,0,2.52536,1664.25,-5199.87)">
        <text x="7943.75px" y="3272.49px" style="font-family:'ArialMT', 'Arial', sans-serif;font-size:225.537px;fill:rgb(133,29,162);">K</text>
    </g>
    <g transform="matrix(2.0843,0,0,2.52536,-7308.77,-4095.41)">
        <text x="12398.1px" y="2890.37px" style="font-family:'ArialMT', 'Arial', sans-serif;font-size:124.045px;fill:rgb(133,29,162);">X</text>
    </g>
    <g transform="matrix(2.0843,0,0,2.52536,-7835.77,-4319.05)">
        <text x="12398.1px" y="2890.37px" style="font-family:'ArialMT', 'Arial', sans-serif;font-size:124.045px;fill:rgb(10,0,12);">x</text>
    </g>
    <g transform="matrix(-0.412808,-1.0172,1.0846,-0.417154,19266.1,2645.72)">
        <circle cx="268.444" cy="560.898" r="114.602" style="fill:url(#_Radial24);stroke:rgb(255,204,0);stroke-width:26.79px;"/>
    </g>
    <g transform="matrix(-0.412808,-1.0172,1.0846,-0.417154,18778.2,2143.19)">
        <circle cx="268.444" cy="560.898" r="114.602" style="fill:url(#_Radial25);stroke:rgb(255,204,0);stroke-width:26.79px;"/>
    </g>
    <g transform="matrix(0.834906,0.885133,-1.02387,0.930494,23426.9,-3764.37)">
        <path d="M1250.06,4237.23C1250.06,4229.03 1242.49,4222.38 1233.17,4222.38L1199.39,4222.38C1190.06,4222.38 1182.49,4229.03 1182.49,4237.23L1182.49,4534.1C1182.49,4542.31 1190.06,4548.96 1199.39,4548.96L1233.17,4548.96C1242.49,4548.96 1250.06,4542.31 1250.06,4534.1L1250.06,4237.23Z" style="fill:rgb(167,163,184);stroke:black;stroke-opacity:0;stroke-width:13.88px;"/>
    </g>
    <g transform="matrix(0.834906,0.885133,-1.02387,0.930494,23495.1,-3692.06)">
        <path d="M1250.06,4237.23C1250.06,4229.03 1242.49,4222.38 1233.17,4222.38L1199.39,4222.38C1190.06,4222.38 1182.49,4229.03 1182.49,4237.23L1182.49,4534.1C1182.49,4542.31 1190.06,4548.96 1199.39,4548.96L1233.17,4548.96C1242.49,4548.96 1250.06,4542.31 1250.06,4534.1L1250.06,4237.23Z" style="fill:rgb(167,163,184);stroke:black;stroke-opacity:0;stroke-width:13.88px;"/>
    </g>
    <g transform="matrix(1.58564,0.311286,-0.138857,0.960776,18499.7,-2774.48)">
        <path d="M1250.06,4250.53C1250.06,4234.99 1242.49,4222.38 1233.17,4222.38L1199.39,4222.38C1190.06,4222.38 1182.49,4234.99 1182.49,4250.53L1182.49,4520.81C1182.49,4536.35 1190.06,4548.96 1199.39,4548.96L1233.17,4548.96C1242.49,4548.96 1250.06,4536.35 1250.06,4520.81L1250.06,4250.53Z" style="fill:rgb(167,163,184);stroke:black;stroke-opacity:0;stroke-width:13.15px;"/>
    </g>
    <g transform="matrix(0.194304,1.57574,-0.986595,0.0620384,23675.9,-617.292)">
        <path d="M1250.06,4249.55C1250.06,4234.55 1242.49,4222.38 1233.17,4222.38L1199.39,4222.38C1190.06,4222.38 1182.49,4234.55 1182.49,4249.55L1182.49,4521.78C1182.49,4536.78 1190.06,4548.96 1199.39,4548.96L1233.17,4548.96C1242.49,4548.96 1250.06,4536.78 1250.06,4521.78L1250.06,4249.55Z" style="fill:rgb(167,163,184);stroke:black;stroke-opacity:0;stroke-width:13.93px;"/>
    </g>
    <g transform="matrix(-1.19178,-0.512072,0.541413,-1.20209,20248.1,5130.01)">
        <circle cx="268.444" cy="560.898" r="114.602" style="fill:url(#_Radial26);stroke:rgb(255,204,0);stroke-width:26.79px;"/>
    </g>
    <g transform="matrix(-1.24325,-0.534186,0.559234,-1.24166,19494.7,5162.59)">
        <circle cx="268.444" cy="560.898" r="114.602" style="fill:url(#_Radial27);stroke:rgb(255,204,0);stroke-width:26.79px;"/>
    </g>
    <g transform="matrix(1.60138,-0.0235513,-0.0468552,1.76103,18050.7,-4278.39)">
        <path d="M1250.06,4237.74C1250.06,4229.26 1242.49,4222.38 1233.17,4222.38L1199.39,4222.38C1190.06,4222.38 1182.49,4229.26 1182.49,4237.74L1182.49,4533.59C1182.49,4542.08 1190.06,4548.96 1199.39,4548.96L1233.17,4548.96C1242.49,4548.96 1250.06,4542.08 1250.06,4533.59L1250.06,4237.74Z" style="fill:rgb(167,163,184);stroke:black;stroke-opacity:0;stroke-width:10.87px;"/>
    </g>
    <g transform="matrix(1.60138,-0.0235513,-0.0468552,1.76103,18181.6,-4280.31)">
        <path d="M1250.06,4237.74C1250.06,4229.26 1242.49,4222.38 1233.17,4222.38L1199.39,4222.38C1190.06,4222.38 1182.49,4229.26 1182.49,4237.74L1182.49,4533.59C1182.49,4542.08 1190.06,4548.96 1199.39,4548.96L1233.17,4548.96C1242.49,4548.96 1250.06,4542.08 1250.06,4533.59L1250.06,4237.74Z" style="fill:rgb(167,163,184);stroke:black;stroke-opacity:0;stroke-width:10.87px;"/>
    </g>
    <g transform="matrix(1.73884,-1.22164,0.787245,0.955921,14508.5,1199.4)">
        <path d="M1250.06,4251.45C1250.06,4235.4 1242.49,4222.38 1233.17,4222.38L1199.39,4222.38C1190.06,4222.38 1182.49,4235.4 1182.49,4251.45L1182.49,4519.89C1182.49,4535.94 1190.06,4548.96 1199.39,4548.96L1233.17,4548.96C1242.49,4548.96 1250.06,4535.94 1250.06,4519.89L1250.06,4251.45Z" style="fill:rgb(167,163,184);stroke:black;stroke-opacity:0;stroke-width:9.98px;"/>
    </g>
    <g transform="matrix(1.67517,1.17143,-0.838749,0.979834,21269.8,-1808.15)">
        <path d="M1250.06,4249.27C1250.06,4234.43 1242.49,4222.38 1233.17,4222.38L1199.39,4222.38C1190.06,4222.38 1182.49,4234.43 1182.49,4249.27L1182.49,4522.06C1182.49,4536.91 1190.06,4548.96 1199.39,4548.96L1233.17,4548.96C1242.49,4548.96 1250.06,4536.91 1250.06,4522.06L1250.06,4249.27Z" style="fill:rgb(167,163,184);stroke:black;stroke-opacity:0;stroke-width:10.98px;"/>
    </g>
    <g transform="matrix(-1.07757,0.0837332,-0.0524922,-1.17956,17294.8,2498.05)">
        <circle cx="268.444" cy="560.898" r="114.602" style="fill:url(#_Radial28);stroke:rgb(255,204,0);stroke-width:26.79px;"/>
    </g>
    <g transform="matrix(-1.07757,0.0837332,-0.0524922,-1.17956,16674.3,2814.28)">
        <circle cx="268.444" cy="560.898" r="114.602" style="fill:url(#_Radial29);stroke:rgb(255,204,0);stroke-width:26.79px;"/>
    </g>
    <g transform="matrix(1.0854,-0.533387,0.550457,1.2802,12604.4,-3520.85)">
        <path d="M1250.06,4237.05C1250.06,4228.95 1242.49,4222.38 1233.17,4222.38L1199.39,4222.38C1190.06,4222.38 1182.49,4228.95 1182.49,4237.05L1182.49,4534.28C1182.49,4542.39 1190.06,4548.96 1199.39,4548.96L1233.17,4548.96C1242.49,4548.96 1250.06,4542.39 1250.06,4534.28L1250.06,4237.05Z" style="fill:rgb(167,163,184);stroke:black;stroke-opacity:0;stroke-width:14.09px;"/>
    </g>
    <g transform="matrix(1.0854,-0.533387,0.550457,1.2802,12693.1,-3564.43)">
        <path d="M1250.06,4237.05C1250.06,4228.95 1242.49,4222.38 1233.17,4222.38L1199.39,4222.38C1190.06,4222.38 1182.49,4228.95 1182.49,4237.05L1182.49,4534.28C1182.49,4542.39 1190.06,4548.96 1199.39,4548.96L1233.17,4548.96C1242.49,4548.96 1250.06,4542.39 1250.06,4534.28L1250.06,4237.05Z" style="fill:rgb(167,163,184);stroke:black;stroke-opacity:0;stroke-width:14.09px;"/>
    </g>
    <g transform="matrix(0.782977,-1.4384,0.853576,0.432816,11998,1556.69)">
        <path d="M1250.06,4251.29C1250.06,4235.33 1242.49,4222.38 1233.17,4222.38L1199.39,4222.38C1190.06,4222.38 1182.49,4235.33 1182.49,4251.29L1182.49,4520.04C1182.49,4536.01 1190.06,4548.96 1199.39,4548.96L1233.17,4548.96C1242.49,4548.96 1250.06,4536.01 1250.06,4520.04L1250.06,4251.29Z" style="fill:rgb(167,163,184);stroke:black;stroke-opacity:0;stroke-width:13.19px;"/>
    </g>
    <g transform="matrix(1.531,0.301268,-0.248505,0.974401,15618.9,-2784.48)">
        <path d="M1250.06,4248.63C1250.06,4234.14 1242.49,4222.38 1233.17,4222.38L1199.39,4222.38C1190.06,4222.38 1182.49,4234.14 1182.49,4248.63L1182.49,4522.71C1182.49,4537.2 1190.06,4548.96 1199.39,4548.96L1233.17,4548.96C1242.49,4548.96 1250.06,4537.2 1250.06,4522.71L1250.06,4248.63Z" style="fill:rgb(167,163,184);stroke:black;stroke-opacity:0;stroke-width:14.01px;"/>
    </g>
    <g transform="matrix(-1.00081,0.415337,-0.404152,-1.10671,17387.2,4290.09)">
        <circle cx="268.444" cy="560.898" r="114.602" style="fill:url(#_Radial30);stroke:rgb(255,204,0);stroke-width:26.79px;"/>
    </g>
    <g transform="matrix(0.873246,-0.845887,0.908479,1.04743,11114.3,20.3733)">
        <path d="M1250.06,4237.21C1250.06,4229.02 1242.49,4222.38 1233.17,4222.38L1199.39,4222.38C1190.06,4222.38 1182.49,4229.02 1182.49,4237.21L1182.49,4534.13C1182.49,4542.32 1190.06,4548.96 1199.39,4548.96L1233.17,4548.96C1242.49,4548.96 1250.06,4542.32 1250.06,4534.13L1250.06,4237.21Z" style="fill:rgb(167,163,184);stroke:black;stroke-opacity:0;stroke-width:14.13px;"/>
    </g>
    <g transform="matrix(0.873246,-0.845887,0.908479,1.04743,11185.6,-48.7298)">
        <path d="M1250.06,4237.21C1250.06,4229.02 1242.49,4222.38 1233.17,4222.38L1199.39,4222.38C1190.06,4222.38 1182.49,4229.02 1182.49,4237.21L1182.49,4534.13C1182.49,4542.32 1190.06,4548.96 1199.39,4548.96L1233.17,4548.96C1242.49,4548.96 1250.06,4542.32 1250.06,4534.13L1250.06,4237.21Z" style="fill:rgb(167,163,184);stroke:black;stroke-opacity:0;stroke-width:14.13px;"/>
    </g>
    <g transform="matrix(0.313575,-1.61336,0.942642,0.14623,12061.6,5043.53)">
        <path d="M1250.06,4251.5C1250.06,4235.43 1242.49,4222.38 1233.17,4222.38L1199.39,4222.38C1190.06,4222.38 1182.49,4235.43 1182.49,4251.5L1182.49,4519.84C1182.49,4535.91 1190.06,4548.96 1199.39,4548.96L1233.17,4548.96C1242.49,4548.96 1250.06,4535.91 1250.06,4519.84L1250.06,4251.5Z" style="fill:rgb(167,163,184);stroke:black;stroke-opacity:0;stroke-width:13.12px;"/>
    </g>
    <g transform="matrix(1.54811,-0.190002,0.055973,1.00512,14205.5,-217.418)">
        <path d="M1250.06,4248.61C1250.06,4234.13 1242.49,4222.38 1233.17,4222.38L1199.39,4222.38C1190.06,4222.38 1182.49,4234.13 1182.49,4248.61L1182.49,4522.73C1182.49,4537.21 1190.06,4548.96 1199.39,4548.96L1233.17,4548.96C1242.49,4548.96 1250.06,4537.21 1250.06,4522.73L1250.06,4248.61Z" style="fill:rgb(167,163,184);stroke:black;stroke-opacity:0;stroke-width:14.08px;"/>
    </g>
    <g transform="matrix(-1.08068,-0.00760968,0.0437783,-1.17993,18980.2,1454.29)">
        <circle cx="268.444" cy="560.898" r="114.602" style="fill:url(#_Radial31);stroke:rgb(255,204,0);stroke-width:26.79px;"/>
    </g>
    <g transform="matrix(-1.08068,-0.00760968,0.0437783,-1.17993,18336,1716.99)">
        <circle cx="268.444" cy="560.898" r="114.602" style="fill:url(#_Radial32);stroke:rgb(255,204,0);stroke-width:26.79px;"/>
    </g>
    <g transform="matrix(1.12511,-0.439833,0.444272,1.3223,14796.3,-4940.2)">
        <path d="M1250.06,4237.02C1250.06,4228.94 1242.49,4222.38 1233.17,4222.38L1199.39,4222.38C1190.06,4222.38 1182.49,4228.94 1182.49,4237.02L1182.49,4534.32C1182.49,4542.4 1190.06,4548.96 1199.39,4548.96L1233.17,4548.96C1242.49,4548.96 1250.06,4542.4 1250.06,4534.32L1250.06,4237.02Z" style="fill:rgb(167,163,184);stroke:black;stroke-opacity:0;stroke-width:14.07px;"/>
    </g>
    <g transform="matrix(1.12511,-0.439833,0.444272,1.3223,14888.2,-4976.13)">
        <path d="M1250.06,4237.02C1250.06,4228.94 1242.49,4222.38 1233.17,4222.38L1199.39,4222.38C1190.06,4222.38 1182.49,4228.94 1182.49,4237.02L1182.49,4534.32C1182.49,4542.4 1190.06,4548.96 1199.39,4548.96L1233.17,4548.96C1242.49,4548.96 1250.06,4542.4 1250.06,4534.32L1250.06,4237.02Z" style="fill:rgb(167,163,184);stroke:black;stroke-opacity:0;stroke-width:14.07px;"/>
    </g>
    <g transform="matrix(0.897453,-1.36728,0.815376,0.50345,13778.4,68.6009)">
        <path d="M1250.06,4251.22C1250.06,4235.3 1242.49,4222.38 1233.17,4222.38L1199.39,4222.38C1190.06,4222.38 1182.49,4235.3 1182.49,4251.22L1182.49,4520.12C1182.49,4536.04 1190.06,4548.96 1199.39,4548.96L1233.17,4548.96C1242.49,4548.96 1250.06,4536.04 1250.06,4520.12L1250.06,4251.22Z" style="fill:rgb(167,163,184);stroke:black;stroke-opacity:0;stroke-width:13.21px;"/>
    </g>
    <g transform="matrix(1.50118,0.429598,-0.327024,0.950043,17740.4,-3951.64)">
        <path d="M1250.06,4248.66C1250.06,4234.15 1242.49,4222.38 1233.17,4222.38L1199.39,4222.38C1190.06,4222.38 1182.49,4234.15 1182.49,4248.66L1182.49,4522.68C1182.49,4537.18 1190.06,4548.96 1199.39,4548.96L1233.17,4548.96C1242.49,4548.96 1250.06,4537.18 1250.06,4522.68L1250.06,4248.66Z" style="fill:rgb(167,163,184);stroke:black;stroke-opacity:0;stroke-width:13.99px;"/>
    </g>
    <g transform="matrix(0.525981,-0.961506,0.994887,0.606236,14097.1,941.306)">
        <circle cx="268.444" cy="560.898" r="114.602" style="fill:url(#_Radial33);stroke:rgb(255,204,0);stroke-width:26.79px;"/>
    </g>
    <g transform="matrix(0.525981,-0.961506,0.994887,0.606236,14180.5,239.741)">
        <circle cx="268.444" cy="560.898" r="114.602" style="fill:url(#_Radial34);stroke:rgb(255,204,0);stroke-width:26.79px;"/>
    </g>
    <g transform="matrix(-0.162086,1.21625,-1.35205,-0.238781,21613.8,278.138)">
        <path d="M1250.06,4237.48C1250.06,4229.15 1242.49,4222.38 1233.17,4222.38L1199.39,4222.38C1190.06,4222.38 1182.49,4229.15 1182.49,4237.48L1182.49,4533.85C1182.49,4542.19 1190.06,4548.96 1199.39,4548.96L1233.17,4548.96C1242.49,4548.96 1250.06,4542.19 1250.06,4533.85L1250.06,4237.48Z" style="fill:rgb(167,163,184);stroke:black;stroke-opacity:0;stroke-width:14.06px;"/>
    </g>
    <g transform="matrix(-0.162086,1.21625,-1.35205,-0.238781,21600.6,377.497)">
        <path d="M1250.06,4237.48C1250.06,4229.15 1242.49,4222.38 1233.17,4222.38L1199.39,4222.38C1190.06,4222.38 1182.49,4229.15 1182.49,4237.48L1182.49,4533.85C1182.49,4542.19 1190.06,4548.96 1199.39,4548.96L1233.17,4548.96C1242.49,4548.96 1250.06,4542.19 1250.06,4533.85L1250.06,4237.48Z" style="fill:rgb(167,163,184);stroke:black;stroke-opacity:0;stroke-width:14.06px;"/>
    </g>
    <g transform="matrix(0.745876,1.45871,-0.825385,0.486237,17790.5,-3038.45)">
        <path d="M1250.06,4251.32C1250.06,4235.34 1242.49,4222.38 1233.17,4222.38L1199.39,4222.38C1190.06,4222.38 1182.49,4235.34 1182.49,4251.32L1182.49,4520.02C1182.49,4535.99 1190.06,4548.96 1199.39,4548.96L1233.17,4548.96C1242.49,4548.96 1250.06,4535.99 1250.06,4520.02L1250.06,4251.32Z" style="fill:rgb(167,163,184);stroke:black;stroke-opacity:0;stroke-width:13.02px;"/>
    </g>
    <g transform="matrix(-1.09143,1.13423,-0.660808,-0.748709,19347.6,2432.43)">
        <path d="M1250.06,4249.09C1250.06,4234.35 1242.49,4222.38 1233.17,4222.38L1199.39,4222.38C1190.06,4222.38 1182.49,4234.35 1182.49,4249.09L1182.49,4522.25C1182.49,4536.99 1190.06,4548.96 1199.39,4548.96L1233.17,4548.96C1242.49,4548.96 1250.06,4536.99 1250.06,4522.25L1250.06,4249.09Z" style="fill:rgb(167,163,184);stroke:black;stroke-opacity:0;stroke-width:14.12px;"/>
    </g>
    <g transform="matrix(0.697017,0.841141,-0.90864,0.733359,14573.1,1645.46)">
        <circle cx="268.444" cy="560.898" r="114.602" style="fill:url(#_Radial35);stroke:rgb(255,204,0);stroke-width:26.79px;"/>
    </g>
    <g transform="matrix(0.697017,0.841141,-0.90864,0.733359,15187.9,1973.06)">
        <circle cx="268.444" cy="560.898" r="114.602" style="fill:url(#_Radial36);stroke:rgb(255,204,0);stroke-width:26.79px;"/>
    </g>
    <g transform="matrix(-1.05968,-0.584577,0.697492,-1.20357,12523.6,9040.74)">
        <path d="M1250.06,4237.07C1250.06,4228.96 1242.49,4222.38 1233.17,4222.38L1199.39,4222.38C1190.06,4222.38 1182.49,4228.96 1182.49,4237.07L1182.49,4534.26C1182.49,4542.38 1190.06,4548.96 1199.39,4548.96L1233.17,4548.96C1242.49,4548.96 1250.06,4542.38 1250.06,4534.26L1250.06,4237.07Z" style="fill:rgb(167,163,184);stroke:black;stroke-opacity:0;stroke-width:13.89px;"/>
    </g>
    <g transform="matrix(-1.05968,-0.584577,0.697492,-1.20357,12437.1,8992.99)">
        <path d="M1250.06,4237.07C1250.06,4228.96 1242.49,4222.38 1233.17,4222.38L1199.39,4222.38C1190.06,4222.38 1182.49,4228.96 1182.49,4237.07L1182.49,4534.26C1182.49,4542.38 1190.06,4548.96 1199.39,4548.96L1233.17,4548.96C1242.49,4548.96 1250.06,4542.38 1250.06,4534.26L1250.06,4237.07Z" style="fill:rgb(167,163,184);stroke:black;stroke-opacity:0;stroke-width:13.89px;"/>
    </g>
    <g transform="matrix(-1.60348,0.194634,-0.154636,-0.958273,16921.8,6571.47)">
        <path d="M1250.06,4250.51C1250.06,4234.98 1242.49,4222.38 1233.17,4222.38L1199.39,4222.38C1190.06,4222.38 1182.49,4234.98 1182.49,4250.51L1182.49,4520.83C1182.49,4536.36 1190.06,4548.96 1199.39,4548.96L1233.17,4548.96C1242.49,4548.96 1250.06,4536.36 1250.06,4520.83L1250.06,4250.51Z" style="fill:rgb(167,163,184);stroke:black;stroke-opacity:0;stroke-width:13.22px;"/>
    </g>
    <g transform="matrix(-0.655658,-1.4409,0.92133,-0.36471,11346.7,6119.87)">
        <path d="M1250.06,4249.4C1250.06,4234.48 1242.49,4222.38 1233.17,4222.38L1199.39,4222.38C1190.06,4222.38 1182.49,4234.48 1182.49,4249.4L1182.49,4521.94C1182.49,4536.86 1190.06,4548.96 1199.39,4548.96L1233.17,4548.96C1242.49,4548.96 1250.06,4536.86 1250.06,4521.94L1250.06,4249.4Z" style="fill:rgb(167,163,184);stroke:black;stroke-opacity:0;stroke-width:13.88px;"/>
    </g>
    <g transform="matrix(1.1656,0,0,1.68007,9321.9,-2407.78)">
        <text x="7943.75px" y="3272.49px" style="font-family:'ArialMT', 'Arial', sans-serif;font-size:458.895px;fill:rgb(133,29,162);">*</text>
    </g>
    <g transform="matrix(0.97661,-2.26073e-17,0.00731077,1.21252,2749.75,-409.449)">
        <path d="M8584.83,3279.03L8584.83,3407.22L8339.98,3210.01L8584.83,3012.8L8584.83,3140.99L9722.11,3140.99L9722.11,3012.8L9966.96,3210.01L9722.11,3407.22L9722.11,3279.03L8584.83,3279.03Z" style="fill:rgb(16,255,0);"/>
    </g>
    <g transform="matrix(2.0843,0,0,2.52536,-5611.37,-5346.41)">
        <text x="7943.75px" y="3272.49px" style="font-family:'ArialMT', 'Arial', sans-serif;font-size:225.537px;fill:rgb(30,162,29);">K</text>
    </g>
    <g transform="matrix(2.0843,0,0,2.52536,-14584.4,-4241.95)">
        <text x="12398.1px" y="2890.37px" style="font-family:'ArialMT', 'Arial', sans-serif;font-size:124.045px;fill:rgb(30,162,29);">D</text>
    </g>
    <g transform="matrix(2.0843,0,0,2.52536,-4831.85,-5324.05)">
        <text x="7943.75px" y="3272.49px" style="font-family:'ArialMT', 'Arial', sans-serif;font-size:225.537px;fill:rgb(133,29,162);">K</text>
    </g>
    <g transform="matrix(2.0843,0,0,2.52536,-13804.9,-4219.59)">
        <text x="12398.1px" y="2890.37px" style="font-family:'ArialMT', 'Arial', sans-serif;font-size:124.045px;fill:rgb(133,29,162);">X</text>
    </g>
    <g transform="matrix(2.0843,0,0,2.52536,-14331.9,-4443.23)">
        <text x="12398.1px" y="2890.37px" style="font-family:'ArialMT', 'Arial', sans-serif;font-size:124.045px;fill:rgb(10,0,12);">x</text>
    </g>
    <g transform="matrix(1.1656,0,0,1.68007,2825.81,-2531.95)">
        <text x="7943.75px" y="3272.49px" style="font-family:'ArialMT', 'Arial', sans-serif;font-size:458.895px;fill:rgb(133,29,162);">*</text>
    </g>
    <defs>
        <radialGradient id="_Radial1" cx="0" cy="0" r="1" gradientUnits="userSpaceOnUse" gradientTransform="matrix(114.602,0,0,114.602,268.444,560.898)"><stop offset="0" style="stop-color:white;stop-opacity:1"/><stop offset="0.48" style="stop-color:rgb(86,223,172);stop-opacity:1"/><stop offset="1" style="stop-color:rgb(34,213,147);stop-opacity:1"/></radialGradient>
        <radialGradient id="_Radial2" cx="0" cy="0" r="1" gradientUnits="userSpaceOnUse" gradientTransform="matrix(114.602,0,0,114.602,268.444,560.898)"><stop offset="0" style="stop-color:white;stop-opacity:1"/><stop offset="0.48" style="stop-color:rgb(86,223,172);stop-opacity:1"/><stop offset="1" style="stop-color:rgb(34,213,147);stop-opacity:1"/></radialGradient>
        <radialGradient id="_Radial3" cx="0" cy="0" r="1" gradientUnits="userSpaceOnUse" gradientTransform="matrix(114.602,0,0,114.602,268.444,560.898)"><stop offset="0" style="stop-color:white;stop-opacity:1"/><stop offset="0.48" style="stop-color:rgb(86,223,172);stop-opacity:1"/><stop offset="1" style="stop-color:rgb(34,213,147);stop-opacity:1"/></radialGradient>
        <radialGradient id="_Radial4" cx="0" cy="0" r="1" gradientUnits="userSpaceOnUse" gradientTransform="matrix(114.602,0,0,114.602,268.444,560.898)"><stop offset="0" style="stop-color:white;stop-opacity:1"/><stop offset="0.48" style="stop-color:rgb(86,223,172);stop-opacity:1"/><stop offset="1" style="stop-color:rgb(34,213,147);stop-opacity:1"/></radialGradient>
        <radialGradient id="_Radial5" cx="0" cy="0" r="1" gradientUnits="userSpaceOnUse" gradientTransform="matrix(114.602,0,0,114.602,268.444,560.898)"><stop offset="0" style="stop-color:white;stop-opacity:1"/><stop offset="0.48" style="stop-color:rgb(86,223,172);stop-opacity:1"/><stop offset="1" style="stop-color:rgb(34,213,147);stop-opacity:1"/></radialGradient>
        <radialGradient id="_Radial6" cx="0" cy="0" r="1" gradientUnits="userSpaceOnUse" gradientTransform="matrix(114.602,0,0,114.602,268.444,560.898)"><stop offset="0" style="stop-color:white;stop-opacity:1"/><stop offset="0.48" style="stop-color:rgb(86,223,172);stop-opacity:1"/><stop offset="1" style="stop-color:rgb(34,213,147);stop-opacity:1"/></radialGradient>
        <radialGradient id="_Radial7" cx="0" cy="0" r="1" gradientUnits="userSpaceOnUse" gradientTransform="matrix(114.602,0,0,114.602,268.444,560.898)"><stop offset="0" style="stop-color:white;stop-opacity:1"/><stop offset="0.48" style="stop-color:rgb(86,223,172);stop-opacity:1"/><stop offset="1" style="stop-color:rgb(34,213,147);stop-opacity:1"/></radialGradient>
        <radialGradient id="_Radial8" cx="0" cy="0" r="1" gradientUnits="userSpaceOnUse" gradientTransform="matrix(114.602,0,0,114.602,268.444,560.898)"><stop offset="0" style="stop-color:white;stop-opacity:1"/><stop offset="0.48" style="stop-color:rgb(86,223,172);stop-opacity:1"/><stop offset="1" style="stop-color:rgb(34,213,147);stop-opacity:1"/></radialGradient>
        <radialGradient id="_Radial9" cx="0" cy="0" r="1" gradientUnits="userSpaceOnUse" gradientTransform="matrix(114.602,0,0,114.602,268.444,560.898)"><stop offset="0" style="stop-color:white;stop-opacity:1"/><stop offset="0.48" style="stop-color:rgb(86,223,172);stop-opacity:1"/><stop offset="1" style="stop-color:rgb(34,213,147);stop-opacity:1"/></radialGradient>
        <radialGradient id="_Radial10" cx="0" cy="0" r="1" gradientUnits="userSpaceOnUse" gradientTransform="matrix(114.602,0,0,114.602,268.444,560.898)"><stop offset="0" style="stop-color:white;stop-opacity:1"/><stop offset="0.48" style="stop-color:rgb(86,223,172);stop-opacity:1"/><stop offset="1" style="stop-color:rgb(34,213,147);stop-opacity:1"/></radialGradient>
        <radialGradient id="_Radial11" cx="0" cy="0" r="1" gradientUnits="userSpaceOnUse" gradientTransform="matrix(114.602,0,0,114.602,268.444,560.898)"><stop offset="0" style="stop-color:white;stop-opacity:1"/><stop offset="0.48" style="stop-color:rgb(86,223,172);stop-opacity:1"/><stop offset="1" style="stop-color:rgb(34,213,147);stop-opacity:1"/></radialGradient>
        <radialGradient id="_Radial13" cx="0" cy="0" r="1" gradientUnits="userSpaceOnUse" gradientTransform="matrix(114.602,0,0,114.602,268.444,560.898)"><stop offset="0" style="stop-color:white;stop-opacity:1"/><stop offset="0.48" style="stop-color:rgb(86,223,172);stop-opacity:1"/><stop offset="1" style="stop-color:rgb(34,213,147);stop-opacity:1"/></radialGradient>
        <radialGradient id="_Radial14" cx="0" cy="0" r="1" gradientUnits="userSpaceOnUse" gradientTransform="matrix(114.602,0,0,114.602,268.444,560.898)"><stop offset="0" style="stop-color:white;stop-opacity:1"/><stop offset="0.48" style="stop-color:rgb(86,223,172);stop-opacity:1"/><stop offset="1" style="stop-color:rgb(34,213,147);stop-opacity:1"/></radialGradient>
        <radialGradient id="_Radial15" cx="0" cy="0" r="1" gradientUnits="userSpaceOnUse" gradientTransform="matrix(114.602,0,0,114.602,268.444,560.898)"><stop offset="0" style="stop-color:white;stop-opacity:1"/><stop offset="0.48" style="stop-color:rgb(86,223,172);stop-opacity:1"/><stop offset="1" style="stop-color:rgb(34,213,147);stop-opacity:1"/></radialGradient>
        <radialGradient id="_Radial16" cx="0" cy="0" r="1" gradientUnits="userSpaceOnUse" gradientTransform="matrix(114.602,0,0,114.602,268.444,560.898)"><stop offset="0" style="stop-color:white;stop-opacity:1"/><stop offset="0.48" style="stop-color:rgb(86,223,172);stop-opacity:1"/><stop offset="1" style="stop-color:rgb(34,213,147);stop-opacity:1"/></radialGradient>
        <radialGradient id="_Radial17" cx="0" cy="0" r="1" gradientUnits="userSpaceOnUse" gradientTransform="matrix(114.602,0,0,114.602,268.444,560.898)"><stop offset="0" style="stop-color:white;stop-opacity:1"/><stop offset="0.48" style="stop-color:rgb(86,223,172);stop-opacity:1"/><stop offset="1" style="stop-color:rgb(34,213,147);stop-opacity:1"/></radialGradient>
        <radialGradient id="_Radial18" cx="0" cy="0" r="1" gradientUnits="userSpaceOnUse" gradientTransform="matrix(114.602,0,0,114.602,268.444,560.898)"><stop offset="0" style="stop-color:white;stop-opacity:1"/><stop offset="0.48" style="stop-color:rgb(86,223,172);stop-opacity:1"/><stop offset="1" style="stop-color:rgb(34,213,147);stop-opacity:1"/></radialGradient>
        <radialGradient id="_Radial19" cx="0" cy="0" r="1" gradientUnits="userSpaceOnUse" gradientTransform="matrix(114.602,0,0,114.602,268.444,560.898)"><stop offset="0" style="stop-color:white;stop-opacity:1"/><stop offset="0.48" style="stop-color:rgb(86,223,172);stop-opacity:1"/><stop offset="1" style="stop-color:rgb(34,213,147);stop-opacity:1"/></radialGradient>
        <radialGradient id="_Radial20" cx="0" cy="0" r="1" gradientUnits="userSpaceOnUse" gradientTransform="matrix(114.602,0,0,114.602,268.444,560.898)"><stop offset="0" style="stop-color:white;stop-opacity:1"/><stop offset="0.48" style="stop-color:rgb(86,223,172);stop-opacity:1"/><stop offset="1" style="stop-color:rgb(34,213,147);stop-opacity:1"/></radialGradient>
        <radialGradient id="_Radial21" cx="0" cy="0" r="1" gradientUnits="userSpaceOnUse" gradientTransform="matrix(114.602,0,0,114.602,268.444,560.898)"><stop offset="0" style="stop-color:white;stop-opacity:1"/><stop offset="0.48" style="stop-color:rgb(86,223,172);stop-opacity:1"/><stop offset="1" style="stop-color:rgb(34,213,147);stop-opacity:1"/></radialGradient>
        <radialGradient id="_Radial22" cx="0" cy="0" r="1" gradientUnits="userSpaceOnUse" gradientTransform="matrix(114.602,0,0,114.602,268.444,560.898)"><stop offset="0" style="stop-color:white;stop-opacity:1"/><stop offset="0.48" style="stop-color:rgb(86,223,172);stop-opacity:1"/><stop offset="1" style="stop-color:rgb(34,213,147);stop-opacity:1"/></radialGradient>
        <radialGradient id="_Radial23" cx="0" cy="0" r="1" gradientUnits="userSpaceOnUse" gradientTransform="matrix(114.602,0,0,114.602,268.444,560.898)"><stop offset="0" style="stop-color:white;stop-opacity:1"/><stop offset="0.48" style="stop-color:rgb(86,223,172);stop-opacity:1"/><stop offset="1" style="stop-color:rgb(34,213,147);stop-opacity:1"/></radialGradient>
        <radialGradient id="_Radial24" cx="0" cy="0" r="1" gradientUnits="userSpaceOnUse" gradientTransform="matrix(114.602,0,0,114.602,268.444,560.898)"><stop offset="0" style="stop-color:white;stop-opacity:1"/><stop offset="0.48" style="stop-color:rgb(86,223,172);stop-opacity:1"/><stop offset="1" style="stop-color:rgb(34,213,147);stop-opacity:1"/></radialGradient>
        <radialGradient id="_Radial25" cx="0" cy="0" r="1" gradientUnits="userSpaceOnUse" gradientTransform="matrix(114.602,0,0,114.602,268.444,560.898)"><stop offset="0" style="stop-color:white;stop-opacity:1"/><stop offset="0.48" style="stop-color:rgb(86,223,172);stop-opacity:1"/><stop offset="1" style="stop-color:rgb(34,213,147);stop-opacity:1"/></radialGradient>
        <radialGradient id="_Radial26" cx="0" cy="0" r="1" gradientUnits="userSpaceOnUse" gradientTransform="matrix(114.602,0,0,114.602,268.444,560.898)"><stop offset="0" style="stop-color:white;stop-opacity:1"/><stop offset="0.48" style="stop-color:rgb(86,223,172);stop-opacity:1"/><stop offset="1" style="stop-color:rgb(34,213,147);stop-opacity:1"/></radialGradient>
        <radialGradient id="_Radial27" cx="0" cy="0" r="1" gradientUnits="userSpaceOnUse" gradientTransform="matrix(114.602,0,0,114.602,268.444,560.898)"><stop offset="0" style="stop-color:white;stop-opacity:1"/><stop offset="0.48" style="stop-color:rgb(86,223,172);stop-opacity:1"/><stop offset="1" style="stop-color:rgb(34,213,147);stop-opacity:1"/></radialGradient>
        <radialGradient id="_Radial28" cx="0" cy="0" r="1" gradientUnits="userSpaceOnUse" gradientTransform="matrix(114.602,0,0,114.602,268.444,560.898)"><stop offset="0" style="stop-color:white;stop-opacity:1"/><stop offset="0.48" style="stop-color:rgb(86,223,172);stop-opacity:1"/><stop offset="1" style="stop-color:rgb(34,213,147);stop-opacity:1"/></radialGradient>
        <radialGradient id="_Radial29" cx="0" cy="0" r="1" gradientUnits="userSpaceOnUse" gradientTransform="matrix(114.602,0,0,114.602,268.444,560.898)"><stop offset="0" style="stop-color:white;stop-opacity:1"/><stop offset="0.48" style="stop-color:rgb(86,223,172);stop-opacity:1"/><stop offset="1" style="stop-color:rgb(34,213,147);stop-opacity:1"/></radialGradient>
        <radialGradient id="_Radial30" cx="0" cy="0" r="1" gradientUnits="userSpaceOnUse" gradientTransform="matrix(114.602,0,0,114.602,268.444,560.898)"><stop offset="0" style="stop-color:white;stop-opacity:1"/><stop offset="0.48" style="stop-color:rgb(86,223,172);stop-opacity:1"/><stop offset="1" style="stop-color:rgb(34,213,147);stop-opacity:1"/></radialGradient>
        <radialGradient id="_Radial31" cx="0" cy="0" r="1" gradientUnits="userSpaceOnUse" gradientTransform="matrix(114.602,0,0,114.602,268.444,560.898)"><stop offset="0" style="stop-color:white;stop-opacity:1"/><stop offset="0.48" style="stop-color:rgb(86,223,172);stop-opacity:1"/><stop offset="1" style="stop-color:rgb(34,213,147);stop-opacity:1"/></radialGradient>
        <radialGradient id="_Radial32" cx="0" cy="0" r="1" gradientUnits="userSpaceOnUse" gradientTransform="matrix(114.602,0,0,114.602,268.444,560.898)"><stop offset="0" style="stop-color:white;stop-opacity:1"/><stop offset="0.48" style="stop-color:rgb(86,223,172);stop-opacity:1"/><stop offset="1" style="stop-color:rgb(34,213,147);stop-opacity:1"/></radialGradient>
        <radialGradient id="_Radial33" cx="0" cy="0" r="1" gradientUnits="userSpaceOnUse" gradientTransform="matrix(114.602,0,0,114.602,268.444,560.898)"><stop offset="0" style="stop-color:white;stop-opacity:1"/><stop offset="0.48" style="stop-color:rgb(86,223,172);stop-opacity:1"/><stop offset="1" style="stop-color:rgb(34,213,147);stop-opacity:1"/></radialGradient>
        <radialGradient id="_Radial34" cx="0" cy="0" r="1" gradientUnits="userSpaceOnUse" gradientTransform="matrix(114.602,0,0,114.602,268.444,560.898)"><stop offset="0" style="stop-color:white;stop-opacity:1"/><stop offset="0.48" style="stop-color:rgb(86,223,172);stop-opacity:1"/><stop offset="1" style="stop-color:rgb(34,213,147);stop-opacity:1"/></radialGradient>
        <radialGradient id="_Radial35" cx="0" cy="0" r="1" gradientUnits="userSpaceOnUse" gradientTransform="matrix(114.602,0,0,114.602,268.444,560.898)"><stop offset="0" style="stop-color:white;stop-opacity:1"/><stop offset="0.48" style="stop-color:rgb(86,223,172);stop-opacity:1"/><stop offset="1" style="stop-color:rgb(34,213,147);stop-opacity:1"/></radialGradient>
        <radialGradient id="_Radial36" cx="0" cy="0" r="1" gradientUnits="userSpaceOnUse" gradientTransform="matrix(114.602,0,0,114.602,268.444,560.898)"><stop offset="0" style="stop-color:white;stop-opacity:1"/><stop offset="0.48" style="stop-color:rgb(86,223,172);stop-opacity:1"/><stop offset="1" style="stop-color:rgb(34,213,147);stop-opacity:1"/></radialGradient>
    </defs>
</svg>
