<?xml version="1.0" encoding="UTF-8" standalone="no"?>
<!DOCTYPE svg PUBLIC "-//W3C//DTD SVG 1.1//EN" "http://www.w3.org/Graphics/SVG/1.1/DTD/svg11.dtd">
<svg width="100%" height="100%" viewBox="0 0 290 110" version="1.1" xmlns="http://www.w3.org/2000/svg" xmlns:xlink="http://www.w3.org/1999/xlink" xml:space="preserve" xmlns:serif="http://www.serif.com/" style="fill-rule:evenodd;clip-rule:evenodd;stroke-linejoin:round;stroke-miterlimit:10;">
    <g id="g1261" transform="matrix(1.08105,0,0,1.16455,-731.78,184.879)">
        <g transform="matrix(0.868214,0.296309,0.319197,-0.805959,636.888,-91.8223)">
            <path d="M69.412,104.991L115.683,104.991L72.764,66.628L28.221,73.787L69.412,104.991Z" style="fill:rgb(189,189,189);stroke:black;stroke-width:0.96px;"/>
        </g>
        <g transform="matrix(0.80836,0.417459,0.449705,-0.750397,644.049,-91.0037)">
            <path d="M9.347,74.325L54.895,74.325L86.94,23.173L40.246,30.891L9.347,74.325Z" style="fill:rgb(146,146,146);stroke:black;stroke-width:0.96px;"/>
        </g>
        <g transform="matrix(0.92503,0,0,0.858702,676.919,-158.756)">
            <path d="M8.717,18.435L14.659,71.425" style="fill:none;stroke:rgb(158,63,63);stroke-width:1px;stroke-linecap:round;stroke-miterlimit:1.5;"/>
        </g>
        <g transform="matrix(-0.861028,0.313857,0.338101,0.799289,809.555,-174.854)">
            <path d="M52.862,20.156L110.38,20.156L129.118,77.845L76.278,70.587L52.862,20.156Z" style="fill:rgb(229,229,229);stroke:black;stroke-width:0.96px;"/>
        </g>
        <g transform="matrix(0.0499452,-0.857449,0.923681,0.0463639,660.355,-160.083)">
            <text x="-60.521px" y="128.197px" style="font-family:'ArialMT', 'Arial', sans-serif;font-size:8px;">T<tspan x="-55.932px -54.155px " y="128.197px 128.197px ">im</tspan>e (I</text>
            <text x="-35.933px" y="130.861px" style="font-family:'ArialMT', 'Arial', sans-serif;font-size:4.664px;">1</text>
            <text x="-33.339px" y="128.197px" style="font-family:'ArialMT', 'Arial', sans-serif;font-size:8px;">)</text>
        </g>
        <g transform="matrix(0.727531,0.530332,-0.571297,0.675364,660.355,-160.083)">
            <text x="63.729px" y="45.596px" style="font-family:'ArialMT', 'Arial', sans-serif;font-size:8px;">Cell <tspan x="79.588px 84.034px 88.034px " y="45.596px 45.596px 45.596px ">Typ</tspan>es (I</text>
            <text x="108.041px" y="48.26px" style="font-family:'ArialMT', 'Arial', sans-serif;font-size:4.664px;">3</text>
            <text x="110.635px" y="45.596px" style="font-family:'ArialMT', 'Arial', sans-serif;font-size:8px;">)</text>
        </g>
        <g transform="matrix(0.804823,-0.423308,0.456006,0.747114,660.355,-160.083)">
            <text x="16.812px" y="130.992px" style="font-family:'ArialMT', 'Arial', sans-serif;font-size:8px;">Ligands (I</text>
            <text x="51.945px" y="133.656px" style="font-family:'ArialMT', 'Arial', sans-serif;font-size:4.664px;">2</text>
            <text x="54.539px" y="130.992px" style="font-family:'ArialMT', 'Arial', sans-serif;font-size:8px;">)</text>
        </g>
        <g transform="matrix(0.82873,0,0,0.858702,648.802,-206.608)">
            <path d="M191.89,84.156L223.055,84.156" style="fill:none;fill-rule:nonzero;stroke:rgb(90,188,82);stroke-width:1px;stroke-linecap:round;"/>
        </g>
        <g transform="matrix(1.32584e-17,1.23622,1.54824,1.23077e-17,685.714,-355.841)">
            <path d="M182.378,75.638L197.063,75.638" style="fill:none;fill-rule:nonzero;stroke:rgb(82,142,188);stroke-width:0.61px;stroke-linecap:round;"/>
        </g>
        <g transform="matrix(0.676258,-0.427367,-0.520558,-0.709828,727.978,9.82768)">
            <path d="M188.341,93.938L217.414,93.938" style="fill:none;fill-rule:nonzero;stroke:rgb(158,63,63);stroke-width:1.01px;stroke-linecap:round;"/>
        </g>
        <g transform="matrix(0.92503,0,0,0.858702,635.647,-156.536)">
            <text x="175.955px" y="5.463px" style="font-family:'ArialMT', 'Arial', sans-serif;font-size:7px;">Component 1</text>
        </g>
        <g transform="matrix(0.92503,0,0,0.858702,629.172,-156.536)">
            <text x="226.572px" y="30.732px" style="font-family:'ArialMT', 'Arial', sans-serif;font-size:14px;">+</text>
        </g>
        <g transform="matrix(0.92503,0,0,0.858702,627.322,-156.536)">
            <text x="190.794px" y="37.026px" style="font-family:'ArialMT', 'Arial', sans-serif;font-size:7px;">(I</text>
            <text x="195.07px" y="39.357px" style="font-family:'ArialMT', 'Arial', sans-serif;font-size:4.081px;">3</text>
            <text x="197.34px" y="37.026px" style="font-family:'AppleSymbols', 'Apple Symbols';font-size:7px;">⨉</text>
            <text x="202.002px" y="37.026px" style="font-family:'ArialMT', 'Arial', sans-serif;font-size:7px;">1)</text>
        </g>
        <g transform="matrix(0.92503,0,0,0.858702,627.322,-156.536)">
            <text x="200.714px" y="22.735px" style="font-family:'ArialMT', 'Arial', sans-serif;font-size:7px;">(I</text>
            <text x="204.99px" y="25.066px" style="font-family:'ArialMT', 'Arial', sans-serif;font-size:4.081px;">2</text>
            <text x="207.26px" y="22.735px" style="font-family:'AppleSymbols', 'Apple Symbols';font-size:7px;">⨉</text>
            <text x="211.922px" y="22.735px" style="font-family:'ArialMT', 'Arial', sans-serif;font-size:7px;">1)</text>
        </g>
        <g transform="matrix(0.765678,-0.481837,0.519056,0.710775,627.322,-156.536)">
            <text x="144.315px" y="123.956px" style="font-family:'ArialMT', 'Arial', sans-serif;font-size:7px;">(I</text>
            <text x="148.591px" y="126.287px" style="font-family:'ArialMT', 'Arial', sans-serif;font-size:4.081px;">1</text>
            <text x="150.861px" y="123.956px" style="font-family:'AppleSymbols', 'Apple Symbols';font-size:7px;">⨉</text>
            <text x="155.523px" y="123.956px" style="font-family:'ArialMT', 'Arial', sans-serif;font-size:7px;">1)</text>
        </g>
        <g transform="matrix(0.92503,-6.63304e-17,4.49001e-17,0.858702,886.793,-443.83)">
            <text x="-79.391px" y="440.07px" style="font-family:'ArialMT', 'Arial', sans-serif;font-size:8px;">Cell <tspan x="-63.531px -59.086px -55.086px " y="440.07px 440.07px 440.07px ">Typ</tspan>es</text>
        </g>
        <g transform="matrix(0.92503,0,0,0.858702,445.593,-120.782)">
            <text x="446.468px" y="46.638px" style="font-family:'ArialMT', 'Arial', sans-serif;font-size:8px;">Ligands</text>
        </g>
        <g transform="matrix(0.92503,8.54162e-17,-5.55112e-17,0.858702,553.963,-348.3)">
            <text x="346.739px" y="285.107px" style="font-family:'ArialMT', 'Arial', sans-serif;font-size:8px;">T<tspan x="351.329px 353.107px " y="285.107px 285.107px ">im</tspan>e</text>
        </g>
        <g transform="matrix(0.92503,0,0,0.858702,442.144,-118.427)">
            <text x="440.319px" y="18.508px" style="font-family:'ArialMT', 'Arial', sans-serif;font-size:7px;">(I</text>
            <text x="444.595px" y="20.84px" style="font-family:'ArialMT', 'Arial', sans-serif;font-size:4.081px;">1</text>
            <text x="446.865px" y="18.508px" style="font-family:'AppleSymbols', 'Apple Symbols';font-size:7px;">⨉</text>
            <text x="451.527px" y="18.508px" style="font-family:'ArialMT', 'Arial', sans-serif;font-size:7px;">3)</text>
        </g>
        <g transform="matrix(0.92503,0,0,0.858702,457.429,-134.79)">
            <text x="460.229px" y="55.795px" style="font-family:'ArialMT', 'Arial', sans-serif;font-size:7px;">(I</text>
            <text x="464.505px" y="58.126px" style="font-family:'ArialMT', 'Arial', sans-serif;font-size:4.081px;">2</text>
            <text x="466.775px" y="55.795px" style="font-family:'AppleSymbols', 'Apple Symbols';font-size:7px;">⨉</text>
            <text x="471.437px" y="55.795px" style="font-family:'ArialMT', 'Arial', sans-serif;font-size:7px;">3)</text>
        </g>
        <g transform="matrix(0.92503,0,0,0.858702,443.433,-136.949)">
            <text x="444.36px" y="80.944px" style="font-family:'ArialMT', 'Arial', sans-serif;font-size:7px;">(I</text>
            <text x="448.636px" y="83.275px" style="font-family:'ArialMT', 'Arial', sans-serif;font-size:4.081px;">3</text>
            <text x="450.906px" y="80.944px" style="font-family:'AppleSymbols', 'Apple Symbols';font-size:7px;">⨉</text>
            <text x="455.568px" y="80.944px" style="font-family:'ArialMT', 'Arial', sans-serif;font-size:7px;">3)</text>
        </g>
        <g transform="matrix(0.92503,0,0,0.858702,668.571,-198.999)">
            <text x="119.334px" y="111.002px" style="font-family:'AppleSymbols', 'Apple Symbols';font-size:30px;">≅</text>
        </g>
        <g transform="matrix(0.92503,0,0,0.858702,676.919,-158.756)">
            <path d="M48.025,40.321L51.641,100.357" style="fill:none;stroke:rgb(158,63,63);stroke-width:1px;stroke-linecap:round;stroke-miterlimit:1.5;"/>
        </g>
        <g transform="matrix(0.92503,0,0,0.858702,676.919,-158.756)">
            <path d="M101.533,19.333L98.189,74.61" style="fill:none;stroke:rgb(158,63,63);stroke-width:1px;stroke-linecap:round;stroke-miterlimit:1.5;"/>
        </g>
        <g transform="matrix(0.92503,0,0,0.858702,676.919,-158.756)">
            <path d="M48.032,40.347L101.471,19.373" style="fill:none;stroke:rgb(90,188,82);stroke-width:1px;stroke-linecap:round;stroke-miterlimit:1.5;"/>
        </g>
        <g transform="matrix(0.92503,0,0,0.858702,676.919,-158.756)">
            <path d="M8.685,18.426L58.108,3.355" style="fill:none;stroke:rgb(90,188,82);stroke-width:1px;stroke-linecap:round;stroke-miterlimit:1.5;"/>
        </g>
        <g transform="matrix(0.92503,0,0,0.858702,676.919,-158.756)">
            <path d="M51.824,100.829L98.169,74.826" style="fill:none;stroke:rgb(90,188,82);stroke-width:1px;stroke-linecap:round;stroke-miterlimit:1.5;"/>
        </g>
        <g transform="matrix(0.92503,0,0,0.858702,676.919,-158.756)">
            <path d="M58.085,3.345L101.541,19.338" style="fill:none;stroke:rgb(82,142,188);stroke-width:1px;stroke-linecap:round;stroke-miterlimit:1.5;"/>
        </g>
        <g transform="matrix(0.92503,0,0,0.858702,676.919,-158.756)">
            <path d="M8.689,18.42L48.036,40.356" style="fill:none;stroke:rgb(82,142,188);stroke-width:1px;stroke-linecap:round;stroke-miterlimit:1.5;"/>
        </g>
        <g transform="matrix(0.92503,0,0,0.858702,676.919,-158.756)">
            <path d="M14.666,71.461L51.685,100.908" style="fill:none;stroke:rgb(82,142,188);stroke-width:1px;stroke-linecap:round;stroke-miterlimit:1.5;"/>
        </g>
        <g transform="matrix(0.92503,0,0,0.858702,694.311,-232.946)">
            <text x="113.675px" y="118.284px" style="font-family:'AppleSymbols', 'Apple Symbols';font-size:12px;">⊗</text>
        </g>
        <g transform="matrix(0.82873,0,0,0.858702,698.754,-206.608)">
            <path d="M191.89,84.156L223.055,84.156" style="fill:none;fill-rule:nonzero;stroke:rgb(90,188,82);stroke-width:1px;stroke-linecap:round;"/>
        </g>
        <g transform="matrix(1.32584e-17,1.23622,1.54824,1.23077e-17,735.666,-355.841)">
            <path d="M182.378,75.638L197.063,75.638" style="fill:none;fill-rule:nonzero;stroke:rgb(82,142,188);stroke-width:0.61px;stroke-linecap:round;"/>
        </g>
        <g transform="matrix(0.676258,-0.427367,-0.520558,-0.709828,777.929,9.82768)">
            <path d="M188.341,93.938L217.414,93.938" style="fill:none;fill-rule:nonzero;stroke:rgb(158,63,63);stroke-width:1.01px;stroke-linecap:round;"/>
        </g>
        <g transform="matrix(0.92503,0,0,0.858702,685.599,-156.536)">
            <text x="175.955px" y="5.463px" style="font-family:'ArialMT', 'Arial', sans-serif;font-size:7px;">Component 1</text>
        </g>
        <g transform="matrix(0.92503,0,0,0.858702,679.124,-156.536)">
            <text x="226.572px" y="30.732px" style="font-family:'ArialMT', 'Arial', sans-serif;font-size:14px;">+</text>
        </g>
        <g transform="matrix(0.92503,0,0,0.858702,677.274,-156.536)">
            <text x="190.794px" y="37.026px" style="font-family:'ArialMT', 'Arial', sans-serif;font-size:7px;">(I</text>
            <text x="195.07px" y="39.357px" style="font-family:'ArialMT', 'Arial', sans-serif;font-size:4.081px;">3</text>
            <text x="197.34px" y="37.026px" style="font-family:'AppleSymbols', 'Apple Symbols';font-size:7px;">⨉</text>
            <text x="202.002px" y="37.026px" style="font-family:'ArialMT', 'Arial', sans-serif;font-size:7px;">1)</text>
        </g>
        <g transform="matrix(0.92503,0,0,0.858702,677.274,-156.536)">
            <text x="200.714px" y="22.735px" style="font-family:'ArialMT', 'Arial', sans-serif;font-size:7px;">(I</text>
            <text x="204.99px" y="25.066px" style="font-family:'ArialMT', 'Arial', sans-serif;font-size:4.081px;">2</text>
            <text x="207.26px" y="22.735px" style="font-family:'AppleSymbols', 'Apple Symbols';font-size:7px;">⨉</text>
            <text x="211.922px" y="22.735px" style="font-family:'ArialMT', 'Arial', sans-serif;font-size:7px;">1)</text>
        </g>
        <g transform="matrix(0.765678,-0.481837,0.519056,0.710775,677.274,-156.536)">
            <text x="144.315px" y="123.956px" style="font-family:'ArialMT', 'Arial', sans-serif;font-size:7px;">(I</text>
            <text x="148.591px" y="126.287px" style="font-family:'ArialMT', 'Arial', sans-serif;font-size:4.081px;">1</text>
            <text x="150.861px" y="123.956px" style="font-family:'AppleSymbols', 'Apple Symbols';font-size:7px;">⨉</text>
            <text x="155.523px" y="123.956px" style="font-family:'ArialMT', 'Arial', sans-serif;font-size:7px;">1)</text>
        </g>
        <g transform="matrix(0.92503,0,0,0.858702,744.262,-232.946)">
            <text x="113.675px" y="118.284px" style="font-family:'AppleSymbols', 'Apple Symbols';font-size:12px;">⊗</text>
        </g>
        <g transform="matrix(0.82873,0,0,0.858702,749.631,-206.608)">
            <path d="M191.89,84.156L223.055,84.156" style="fill:none;fill-rule:nonzero;stroke:rgb(90,188,82);stroke-width:1px;stroke-linecap:round;"/>
        </g>
        <g transform="matrix(1.32584e-17,1.23622,1.54824,1.23077e-17,786.542,-355.841)">
            <path d="M182.378,75.638L197.063,75.638" style="fill:none;fill-rule:nonzero;stroke:rgb(82,142,188);stroke-width:0.61px;stroke-linecap:round;"/>
        </g>
        <g transform="matrix(0.676258,-0.427367,-0.520558,-0.709828,828.806,9.82768)">
            <path d="M188.341,93.938L217.414,93.938" style="fill:none;fill-rule:nonzero;stroke:rgb(158,63,63);stroke-width:1.01px;stroke-linecap:round;"/>
        </g>
        <g transform="matrix(0.92503,0,0,0.858702,736.476,-156.536)">
            <text x="175.955px" y="5.463px" style="font-family:'ArialMT', 'Arial', sans-serif;font-size:7px;">Component 1</text>
        </g>
        <g transform="matrix(0.92503,0,0,0.858702,728.15,-156.536)">
            <text x="190.794px" y="37.026px" style="font-family:'ArialMT', 'Arial', sans-serif;font-size:7px;">(I</text>
            <text x="195.07px" y="39.357px" style="font-family:'ArialMT', 'Arial', sans-serif;font-size:4.081px;">3</text>
            <text x="197.34px" y="37.026px" style="font-family:'AppleSymbols', 'Apple Symbols';font-size:7px;">⨉</text>
            <text x="202.002px" y="37.026px" style="font-family:'ArialMT', 'Arial', sans-serif;font-size:7px;">1)</text>
        </g>
        <g transform="matrix(0.92503,0,0,0.858702,728.15,-156.536)">
            <text x="200.714px" y="22.735px" style="font-family:'ArialMT', 'Arial', sans-serif;font-size:7px;">(I</text>
            <text x="204.99px" y="25.066px" style="font-family:'ArialMT', 'Arial', sans-serif;font-size:4.081px;">2</text>
            <text x="207.26px" y="22.735px" style="font-family:'AppleSymbols', 'Apple Symbols';font-size:7px;">⨉</text>
            <text x="211.922px" y="22.735px" style="font-family:'ArialMT', 'Arial', sans-serif;font-size:7px;">1)</text>
        </g>
        <g transform="matrix(0.765678,-0.481837,0.519056,0.710775,728.15,-156.536)">
            <text x="144.315px" y="123.956px" style="font-family:'ArialMT', 'Arial', sans-serif;font-size:7px;">(I</text>
            <text x="148.591px" y="126.287px" style="font-family:'ArialMT', 'Arial', sans-serif;font-size:4.081px;">1</text>
            <text x="150.861px" y="123.956px" style="font-family:'AppleSymbols', 'Apple Symbols';font-size:7px;">⨉</text>
            <text x="155.523px" y="123.956px" style="font-family:'ArialMT', 'Arial', sans-serif;font-size:7px;">1)</text>
        </g>
        <g transform="matrix(0.92503,0,0,0.858702,795.139,-232.946)">
            <text x="113.675px" y="118.284px" style="font-family:'AppleSymbols', 'Apple Symbols';font-size:12px;">⊗</text>
        </g>
        <g transform="matrix(0.82873,0,0,0.858702,697.3,-160.401)">
            <path d="M191.89,84.156L223.055,84.156" style="fill:none;fill-rule:nonzero;stroke:rgb(90,188,82);stroke-width:1px;stroke-linecap:round;"/>
        </g>
        <g transform="matrix(1.32584e-17,1.23622,1.54824,1.23077e-17,734.212,-309.634)">
            <path d="M182.378,75.638L197.063,75.638" style="fill:none;fill-rule:nonzero;stroke:rgb(82,142,188);stroke-width:0.61px;stroke-linecap:round;"/>
        </g>
        <g transform="matrix(0.676258,-0.427367,-0.520558,-0.709828,776.476,56.0346)">
            <path d="M188.341,93.938L217.414,93.938" style="fill:none;fill-rule:nonzero;stroke:rgb(158,63,63);stroke-width:1.01px;stroke-linecap:round;"/>
        </g>
        <g transform="matrix(0.82873,0,0,0.858702,697.3,-158.684)">
            <path d="M191.89,84.156L223.055,84.156" style="fill:none;fill-rule:nonzero;stroke:rgb(90,188,82);stroke-width:1px;stroke-linecap:round;"/>
        </g>
        <g transform="matrix(1.32584e-17,1.23622,1.54824,1.23077e-17,736.062,-309.634)">
            <path d="M182.378,75.638L197.063,75.638" style="fill:none;fill-rule:nonzero;stroke:rgb(82,142,188);stroke-width:0.61px;stroke-linecap:round;"/>
        </g>
        <g transform="matrix(0.676258,-0.427367,-0.520558,-0.709828,774.625,54.3172)">
            <path d="M188.341,93.938L217.414,93.938" style="fill:none;fill-rule:nonzero;stroke:rgb(158,63,63);stroke-width:1.01px;stroke-linecap:round;"/>
        </g>
        <g transform="matrix(0.82873,0,0,0.858702,697.3,-162.119)">
            <path d="M191.89,84.156L223.055,84.156" style="fill:none;fill-rule:nonzero;stroke:rgb(90,188,82);stroke-width:1px;stroke-linecap:round;"/>
        </g>
        <g transform="matrix(1.32584e-17,1.23622,1.54824,1.23077e-17,732.362,-309.634)">
            <path d="M182.378,75.638L197.063,75.638" style="fill:none;fill-rule:nonzero;stroke:rgb(82,142,188);stroke-width:0.61px;stroke-linecap:round;"/>
        </g>
        <g transform="matrix(0.676258,-0.427367,-0.520558,-0.709828,775.55,55.1759)">
            <path d="M188.341,93.938L217.414,93.938" style="fill:none;fill-rule:nonzero;stroke:rgb(158,63,63);stroke-width:1.01px;stroke-linecap:round;"/>
        </g>
    </g>
</svg>
